<svg xmlns="http://www.w3.org/2000/svg" viewBox="0 0 750 500"><g id="freepik--background-complete--inject-30"><path d="M671.32,277.74l5.89-9.49-2.91-1.8a2.66,2.66,0,0,1-1.23-2.5,15.45,15.45,0,0,0,0-1.67,2.66,2.66,0,0,1,1.39-2.41l3-1.61-5.28-9.85-3,1.62a2.68,2.68,0,0,1-2.78-.18A13.94,13.94,0,0,0,665,249a2.68,2.68,0,0,1-1.4-2.41l.11-3.42-11.16-.35-.1,3.43a2.64,2.64,0,0,1-1.56,2.31l-.74.37-.71.41a2.63,2.63,0,0,1-2.77,0l-2.93-1.81L637.88,257l2.91,1.81a2.63,2.63,0,0,1,1.23,2.5c0,.55-.06,1.1,0,1.66a2.66,2.66,0,0,1-1.39,2.41l-3,1.61,5.28,9.85,3-1.62a2.68,2.68,0,0,1,2.78.18,13.71,13.71,0,0,0,1.41.87,2.68,2.68,0,0,1,1.4,2.41l-.1,3.43,11.16.34.11-3.42a2.65,2.65,0,0,1,1.55-2.31c.25-.11.49-.24.74-.37s.48-.26.71-.41a2.65,2.65,0,0,1,2.79,0Zm-9.45-7.05a9.15,9.15,0,1,1,3.74-12.38A9.14,9.14,0,0,1,661.87,270.69Z" style="fill:#ebebeb"></path><path d="M445,95.63l-3.91-6.77L439,90.06a1.89,1.89,0,0,1-2-.07,11.12,11.12,0,0,0-1-.59,1.86,1.86,0,0,1-1-1.65V85.36h-7.82v2.39a1.86,1.86,0,0,1-1,1.65c-.35.18-.69.38-1,.59a1.87,1.87,0,0,1-1.95.07l-2.07-1.2-3.91,6.77,2.08,1.2a1.87,1.87,0,0,1,.91,1.73c0,.19,0,.38,0,.58s0,.38,0,.57a1.84,1.84,0,0,1-.9,1.72l-2.09,1.21,3.91,6.77,2.08-1.2a1.87,1.87,0,0,1,1.95.07,9.19,9.19,0,0,0,1,.59,1.87,1.87,0,0,1,1,1.65v2.4H435v-2.4a1.85,1.85,0,0,1,1-1.65,10.23,10.23,0,0,0,1-.59,1.87,1.87,0,0,1,1.95-.07l2.08,1.2,3.91-6.77-2.08-1.2a1.87,1.87,0,0,1-.91-1.72c0-.2,0-.39,0-.58s0-.39,0-.58a1.89,1.89,0,0,1,.91-1.73Zm-7.48,3.51a6.41,6.41,0,1,1-6.41-6.42A6.4,6.4,0,0,1,437.54,99.14Z" style="fill:#ebebeb"></path><path d="M110.2,329.54A30.47,30.47,0,1,0,140.67,360,30.47,30.47,0,0,0,110.2,329.54Zm0,44.7A14.23,14.23,0,1,1,124.43,360,14.23,14.23,0,0,1,110.2,374.24Z" style="fill:#ebebeb"></path><polygon points="116.06 330.81 104.34 330.81 104.99 322.51 115.41 322.51 116.06 330.81" style="fill:#ebebeb"></polygon><polygon points="93.75 334.75 85.47 343.04 80.06 336.72 87.43 329.35 93.75 334.75" style="fill:#ebebeb"></polygon><polygon points="80.78 353.32 80.78 365.03 72.48 364.39 72.48 353.96 80.78 353.32" style="fill:#ebebeb"></polygon><polygon points="84.72 375.62 93.01 383.91 86.69 389.31 79.32 381.94 84.72 375.62" style="fill:#ebebeb"></polygon><polygon points="103.29 388.6 115 388.6 114.36 396.89 103.93 396.89 103.29 388.6" style="fill:#ebebeb"></polygon><polygon points="125.59 384.65 133.88 376.37 139.28 382.69 131.91 390.06 125.59 384.65" style="fill:#ebebeb"></polygon><polygon points="138.57 366.09 138.57 354.37 146.86 355.02 146.86 365.44 138.57 366.09" style="fill:#ebebeb"></polygon><polygon points="134.62 343.79 126.33 335.5 132.66 330.09 140.03 337.46 134.62 343.79" style="fill:#ebebeb"></polygon><path d="M483.77,116.8a30.47,30.47,0,1,0,30.47,30.47A30.46,30.46,0,0,0,483.77,116.8Zm0,44.69A14.23,14.23,0,1,1,498,147.27,14.22,14.22,0,0,1,483.77,161.49Z" style="fill:#ebebeb"></path><polygon points="489.63 118.06 477.91 118.06 478.56 109.76 488.98 109.76 489.63 118.06" style="fill:#ebebeb"></polygon><polygon points="467.33 122.01 459.04 130.29 453.63 123.97 461 116.6 467.33 122.01" style="fill:#ebebeb"></polygon><polygon points="454.35 140.57 454.35 152.29 446.05 151.64 446.05 141.22 454.35 140.57" style="fill:#ebebeb"></polygon><polygon points="458.3 162.87 466.58 171.16 460.26 176.57 452.89 169.2 458.3 162.87" style="fill:#ebebeb"></polygon><polygon points="476.86 175.85 488.58 175.85 487.93 184.15 477.51 184.15 476.86 175.85" style="fill:#ebebeb"></polygon><polygon points="499.16 171.9 507.45 163.62 512.86 169.94 505.49 177.31 499.16 171.9" style="fill:#ebebeb"></polygon><polygon points="512.14 153.34 512.14 141.62 520.44 142.27 520.44 152.69 512.14 153.34" style="fill:#ebebeb"></polygon><polygon points="508.19 131.04 499.91 122.75 506.23 117.34 513.6 124.72 508.19 131.04" style="fill:#ebebeb"></polygon><path d="M573.92,459.74h-50V288.4a9.49,9.49,0,0,0-9.48-9.48H44.12v-50H514.44a59.54,59.54,0,0,1,59.48,59.48Z" style="fill:#ebebeb"></path><rect x="108.05" y="224.54" width="6.07" height="58.75" transform="translate(222.18 507.83) rotate(180)" style="fill:#ebebeb"></rect><polygon points="117 278.91 114.13 278.91 114.13 228.92 119.86 228.92 117 278.91" style="fill:#dbdbdb"></polygon><path d="M103.59,232.68a1.25,1.25,0,0,1-2.49,0,1.25,1.25,0,0,1,2.49,0Zm0,0a.88.88,0,0,0-1.75,0,.88.88,0,1,0,1.75,0Z" style="fill:#dbdbdb"></path><path d="M103.59,239.76a1.25,1.25,0,0,1-2.49,0,1.25,1.25,0,0,1,2.49,0Zm0,0a.88.88,0,1,0-1.75,0,.88.88,0,1,0,1.75,0Z" style="fill:#dbdbdb"></path><path d="M103.59,246.84a1.25,1.25,0,0,1-2.49,0,1.25,1.25,0,1,1,2.49,0Zm0,0a.88.88,0,1,0-1.75,0,.88.88,0,0,0,1.75,0Z" style="fill:#dbdbdb"></path><path d="M103.59,253.91a1.25,1.25,0,1,1-2.49,0,1.25,1.25,0,0,1,2.49,0Zm0,0a.88.88,0,0,0-1.75,0,.88.88,0,1,0,1.75,0Z" style="fill:#dbdbdb"></path><path d="M103.59,261a1.25,1.25,0,0,1-2.49,0,1.25,1.25,0,0,1,2.49,0Zm0,0a.88.88,0,0,0-1.75,0,.88.88,0,1,0,1.75,0Z" style="fill:#dbdbdb"></path><path d="M103.59,268.07a1.25,1.25,0,0,1-2.49,0,1.25,1.25,0,0,1,2.49,0Zm0,0a.88.88,0,1,0-1.75,0,.88.88,0,1,0,1.75,0Z" style="fill:#dbdbdb"></path><path d="M103.59,275.15a1.25,1.25,0,0,1-2.49,0,1.25,1.25,0,1,1,2.49,0Zm0,0a.88.88,0,1,0-1.75,0,.88.88,0,0,0,1.75,0Z" style="fill:#dbdbdb"></path><path d="M108.05,228.92c.5,16.12.5,33.87,0,50-.49-16.12-.49-33.87,0-50Z" style="fill:#dbdbdb"></path><rect x="230.82" y="224.54" width="6.07" height="58.75" transform="translate(467.72 507.83) rotate(180)" style="fill:#ebebeb"></rect><polygon points="239.76 278.91 236.9 278.91 236.9 228.92 242.63 228.92 239.76 278.91" style="fill:#dbdbdb"></polygon><path d="M226.36,232.68a1.25,1.25,0,0,1-2.5,0,1.25,1.25,0,0,1,2.5,0Zm0,0a.88.88,0,0,0-1.75,0,.88.88,0,1,0,1.75,0Z" style="fill:#dbdbdb"></path><path d="M226.36,239.76a1.25,1.25,0,0,1-2.5,0,1.25,1.25,0,0,1,2.5,0Zm0,0a.88.88,0,1,0-1.75,0,.88.88,0,1,0,1.75,0Z" style="fill:#dbdbdb"></path><path d="M226.36,246.84a1.25,1.25,0,0,1-2.5,0,1.25,1.25,0,0,1,2.5,0Zm0,0a.88.88,0,1,0-1.75,0,.88.88,0,0,0,1.75,0Z" style="fill:#dbdbdb"></path><path d="M226.36,253.91a1.25,1.25,0,0,1-2.5,0,1.25,1.25,0,0,1,2.5,0Zm0,0a.88.88,0,0,0-1.75,0,.88.88,0,1,0,1.75,0Z" style="fill:#dbdbdb"></path><path d="M226.36,261a1.25,1.25,0,0,1-2.5,0,1.25,1.25,0,0,1,2.5,0Zm0,0a.88.88,0,0,0-1.75,0,.88.88,0,1,0,1.75,0Z" style="fill:#dbdbdb"></path><path d="M226.36,268.07a1.25,1.25,0,0,1-2.5,0,1.25,1.25,0,0,1,2.5,0Zm0,0a.88.88,0,1,0-1.75,0,.88.88,0,1,0,1.75,0Z" style="fill:#dbdbdb"></path><path d="M226.36,275.15a1.25,1.25,0,0,1-2.5,0,1.25,1.25,0,0,1,2.5,0Zm0,0a.88.88,0,1,0-1.75,0,.88.88,0,0,0,1.75,0Z" style="fill:#dbdbdb"></path><path d="M230.82,228.92c.49,16.12.5,33.87,0,50-.49-16.12-.49-33.87,0-50Z" style="fill:#dbdbdb"></path><rect x="353.59" y="224.54" width="6.07" height="58.75" transform="translate(713.25 507.83) rotate(180)" style="fill:#ebebeb"></rect><polygon points="362.53 278.91 359.66 278.91 359.66 228.92 365.4 228.92 362.53 278.91" style="fill:#dbdbdb"></polygon><path d="M349.13,232.68a1.25,1.25,0,0,1-2.5,0,1.25,1.25,0,0,1,2.5,0Zm0,0a.88.88,0,0,0-1.75,0,.88.88,0,1,0,1.75,0Z" style="fill:#dbdbdb"></path><path d="M349.13,239.76a1.25,1.25,0,0,1-2.5,0,1.25,1.25,0,0,1,2.5,0Zm0,0a.88.88,0,1,0-1.75,0,.88.88,0,1,0,1.75,0Z" style="fill:#dbdbdb"></path><path d="M349.13,246.84a1.25,1.25,0,0,1-2.5,0,1.25,1.25,0,0,1,2.5,0Zm0,0a.88.88,0,1,0-1.75,0,.88.88,0,0,0,1.75,0Z" style="fill:#dbdbdb"></path><path d="M349.13,253.91a1.25,1.25,0,0,1-2.5,0,1.25,1.25,0,0,1,2.5,0Zm0,0a.88.88,0,0,0-1.75,0,.88.88,0,1,0,1.75,0Z" style="fill:#dbdbdb"></path><path d="M349.13,261a1.25,1.25,0,0,1-2.5,0,1.25,1.25,0,0,1,2.5,0Zm0,0a.88.88,0,0,0-1.75,0,.88.88,0,1,0,1.75,0Z" style="fill:#dbdbdb"></path><path d="M349.13,268.07a1.25,1.25,0,0,1-2.5,0,1.25,1.25,0,0,1,2.5,0Zm0,0a.88.88,0,1,0-1.75,0,.88.88,0,1,0,1.75,0Z" style="fill:#dbdbdb"></path><path d="M349.13,275.15a1.25,1.25,0,0,1-2.5,0,1.25,1.25,0,0,1,2.5,0Zm0,0a.88.88,0,1,0-1.75,0,.88.88,0,0,0,1.75,0Z" style="fill:#dbdbdb"></path><path d="M353.59,228.92c.49,16.12.5,33.87,0,50-.5-16.12-.49-33.87,0-50Z" style="fill:#dbdbdb"></path><rect x="476.36" y="224.54" width="6.07" height="58.75" transform="translate(958.79 507.83) rotate(180)" style="fill:#ebebeb"></rect><polygon points="485.3 278.91 482.43 278.91 482.43 228.92 488.17 228.92 485.3 278.91" style="fill:#dbdbdb"></polygon><path d="M471.9,232.68a1.25,1.25,0,0,1-2.5,0,1.25,1.25,0,0,1,2.5,0Zm0,0a.88.88,0,0,0-1.75,0,.88.88,0,1,0,1.75,0Z" style="fill:#dbdbdb"></path><path d="M471.9,239.76a1.25,1.25,0,0,1-2.5,0,1.25,1.25,0,0,1,2.5,0Zm0,0a.88.88,0,1,0-1.75,0,.88.88,0,1,0,1.75,0Z" style="fill:#dbdbdb"></path><path d="M471.9,246.84a1.25,1.25,0,0,1-2.5,0,1.25,1.25,0,0,1,2.5,0Zm0,0a.88.88,0,1,0-1.75,0,.88.88,0,0,0,1.75,0Z" style="fill:#dbdbdb"></path><path d="M471.9,253.91a1.25,1.25,0,0,1-2.5,0,1.25,1.25,0,0,1,2.5,0Zm0,0a.88.88,0,0,0-1.75,0,.88.88,0,1,0,1.75,0Z" style="fill:#dbdbdb"></path><path d="M471.9,261a1.25,1.25,0,0,1-2.5,0,1.25,1.25,0,0,1,2.5,0Zm0,0a.88.88,0,0,0-1.75,0,.88.88,0,1,0,1.75,0Z" style="fill:#dbdbdb"></path><path d="M471.9,268.07a1.25,1.25,0,0,1-2.5,0,1.25,1.25,0,0,1,2.5,0Zm0,0a.88.88,0,1,0-1.75,0,.88.88,0,1,0,1.75,0Z" style="fill:#dbdbdb"></path><path d="M471.9,275.15a1.25,1.25,0,0,1-2.5,0,1.25,1.25,0,0,1,2.5,0Zm0,0a.88.88,0,1,0-1.75,0,.88.88,0,0,0,1.75,0Z" style="fill:#dbdbdb"></path><path d="M476.36,228.92c.49,16.12.49,33.87,0,50-.5-16.12-.49-33.87,0-50Z" style="fill:#dbdbdb"></path><rect x="545.88" y="292.75" width="6.07" height="58.75" transform="translate(226.79 871.05) rotate(-90)" style="fill:#ebebeb"></rect><polygon points="523.92 328.03 523.92 325.16 573.92 325.16 573.92 330.9 523.92 328.03" style="fill:#dbdbdb"></polygon><path d="M570.15,314.63a1.25,1.25,0,0,1,0-2.5,1.25,1.25,0,0,1,0,2.5Zm0,0a.88.88,0,1,0,0-1.75.88.88,0,1,0,0,1.75Z" style="fill:#dbdbdb"></path><path d="M563.07,314.63a1.25,1.25,0,0,1,0-2.5,1.25,1.25,0,0,1,0,2.5Zm0,0a.88.88,0,1,0,0-1.75.88.88,0,0,0,0,1.75Z" style="fill:#dbdbdb"></path><path d="M556,314.63a1.25,1.25,0,0,1,0-2.5,1.25,1.25,0,0,1,0,2.5Zm0,0a.88.88,0,0,0,0-1.75.88.88,0,1,0,0,1.75Z" style="fill:#dbdbdb"></path><path d="M548.92,314.63a1.25,1.25,0,0,1,0-2.5,1.25,1.25,0,0,1,0,2.5Zm0,0a.88.88,0,1,0,0-1.75.88.88,0,1,0,0,1.75Z" style="fill:#dbdbdb"></path><path d="M541.84,314.63a1.25,1.25,0,0,1,0-2.5,1.25,1.25,0,0,1,0,2.5Zm0,0a.88.88,0,1,0,0-1.75.88.88,0,0,0,0,1.75Z" style="fill:#dbdbdb"></path><path d="M534.77,314.63a1.25,1.25,0,0,1,0-2.5,1.25,1.25,0,0,1,0,2.5Zm0,0a.88.88,0,0,0,0-1.75.88.88,0,1,0,0,1.75Z" style="fill:#dbdbdb"></path><path d="M527.69,314.63a1.25,1.25,0,0,1,0-2.5,1.25,1.25,0,0,1,0,2.5Zm0,0a.88.88,0,0,0,0-1.75.88.88,0,1,0,0,1.75Z" style="fill:#dbdbdb"></path><path d="M573.92,319.09c-16.13.49-33.87.5-50,0,16.13-.5,33.87-.49,50,0Z" style="fill:#dbdbdb"></path><rect x="545.88" y="392.32" width="6.07" height="58.75" transform="translate(127.22 970.62) rotate(-90)" style="fill:#ebebeb"></rect><polygon points="523.92 427.6 523.92 424.74 573.92 424.74 573.92 430.47 523.92 427.6" style="fill:#dbdbdb"></polygon><path d="M570.15,414.2a1.25,1.25,0,0,1,0-2.5,1.25,1.25,0,0,1,0,2.5Zm0,0a.88.88,0,1,0,0-1.75.88.88,0,1,0,0,1.75Z" style="fill:#dbdbdb"></path><path d="M563.07,414.2a1.25,1.25,0,0,1,0-2.5,1.25,1.25,0,0,1,0,2.5Zm0,0a.88.88,0,1,0,0-1.75.88.88,0,0,0,0,1.75Z" style="fill:#dbdbdb"></path><path d="M556,414.2a1.25,1.25,0,0,1,0-2.5,1.25,1.25,0,0,1,0,2.5Zm0,0a.88.88,0,0,0,0-1.75.88.88,0,1,0,0,1.75Z" style="fill:#dbdbdb"></path><path d="M548.92,414.2a1.25,1.25,0,0,1,0-2.5,1.25,1.25,0,0,1,0,2.5Zm0,0a.88.88,0,1,0,0-1.75.88.88,0,1,0,0,1.75Z" style="fill:#dbdbdb"></path><path d="M541.84,414.2a1.25,1.25,0,0,1,0-2.5,1.25,1.25,0,0,1,0,2.5Zm0,0a.88.88,0,1,0,0-1.75.88.88,0,0,0,0,1.75Z" style="fill:#dbdbdb"></path><path d="M534.77,414.2a1.25,1.25,0,0,1,0-2.5,1.25,1.25,0,0,1,0,2.5Zm0,0a.88.88,0,0,0,0-1.75.88.88,0,1,0,0,1.75Z" style="fill:#dbdbdb"></path><path d="M527.69,414.2a1.25,1.25,0,0,1,0-2.5,1.25,1.25,0,0,1,0,2.5Zm0,0a.88.88,0,0,0,0-1.75.88.88,0,1,0,0,1.75Z" style="fill:#dbdbdb"></path><path d="M573.92,418.66c-16.13.5-33.87.5-50,0,16.13-.49,33.87-.49,50,0Z" style="fill:#dbdbdb"></path><rect x="157.42" y="289.69" width="10.59" height="169.52" style="fill:#ebebeb"></rect><polygon points="153.36 278.91 172.08 278.91 169.37 289.69 156.07 289.69 153.36 278.91" style="fill:#dbdbdb"></polygon><rect x="295.15" y="289.69" width="10.59" height="169.52" style="fill:#ebebeb"></rect><polygon points="291.08 278.91 309.81 278.91 307.1 289.69 293.79 289.69 291.08 278.91" style="fill:#dbdbdb"></polygon><rect x="432.88" y="289.69" width="10.59" height="169.52" style="fill:#ebebeb"></rect><polygon points="428.81 278.91 447.53 278.91 444.82 289.69 431.52 289.69 428.81 278.91" style="fill:#dbdbdb"></polygon><rect x="620.84" y="44.64" width="50" height="415.1" style="fill:#ebebeb"></rect><rect x="642.8" y="333.36" width="6.07" height="58.75" transform="translate(283.1 1008.58) rotate(-90)" style="fill:#ebebeb"></rect><polygon points="620.84 368.64 620.84 365.77 670.84 365.77 670.84 371.51 620.84 368.64" style="fill:#dbdbdb"></polygon><path d="M667.07,355.24a1.25,1.25,0,0,1,0-2.5,1.25,1.25,0,0,1,0,2.5Zm0,0a.88.88,0,1,0,0-1.75.88.88,0,1,0,0,1.75Z" style="fill:#dbdbdb"></path><path d="M660,355.24a1.25,1.25,0,0,1,0-2.5,1.25,1.25,0,0,1,0,2.5Zm0,0a.88.88,0,1,0,0-1.75.88.88,0,0,0,0,1.75Z" style="fill:#dbdbdb"></path><path d="M652.92,355.24a1.25,1.25,0,0,1,0-2.5,1.25,1.25,0,0,1,0,2.5Zm0,0a.88.88,0,0,0,0-1.75.88.88,0,1,0,0,1.75Z" style="fill:#dbdbdb"></path><path d="M645.84,355.24a1.25,1.25,0,0,1,0-2.5,1.25,1.25,0,0,1,0,2.5Zm0,0a.88.88,0,0,0,0-1.75.88.88,0,1,0,0,1.75Z" style="fill:#dbdbdb"></path><path d="M638.76,355.24a1.25,1.25,0,0,1,0-2.5,1.25,1.25,0,0,1,0,2.5Zm0,0a.88.88,0,1,0,0-1.75.88.88,0,1,0,0,1.75Z" style="fill:#dbdbdb"></path><path d="M631.68,355.24a1.25,1.25,0,0,1,0-2.5,1.25,1.25,0,0,1,0,2.5Zm0,0a.88.88,0,1,0,0-1.75.88.88,0,0,0,0,1.75Z" style="fill:#dbdbdb"></path><path d="M624.61,355.24a1.25,1.25,0,0,1,0-2.5,1.25,1.25,0,0,1,0,2.5Zm0,0a.88.88,0,0,0,0-1.75.88.88,0,1,0,0,1.75Z" style="fill:#dbdbdb"></path><path d="M670.84,359.7c-16.13.49-33.87.5-50,0,16.13-.49,33.87-.49,50,0Z" style="fill:#dbdbdb"></path><rect x="642.8" y="193.85" width="6.07" height="58.75" transform="translate(422.62 869.06) rotate(-90)" style="fill:#ebebeb"></rect><polygon points="620.84 229.13 620.84 226.26 670.84 226.26 670.84 232 620.84 229.13" style="fill:#dbdbdb"></polygon><path d="M667.07,215.72a1.25,1.25,0,0,1,0-2.49,1.25,1.25,0,0,1,0,2.49Zm0,0a.87.87,0,1,0,0-1.74.87.87,0,1,0,0,1.74Z" style="fill:#dbdbdb"></path><path d="M660,215.72a1.25,1.25,0,0,1,0-2.49,1.25,1.25,0,1,1,0,2.49Zm0,0a.87.87,0,1,0,0-1.74.87.87,0,1,0,0,1.74Z" style="fill:#dbdbdb"></path><path d="M652.92,215.72a1.25,1.25,0,1,1,0-2.49,1.25,1.25,0,0,1,0,2.49Zm0,0a.87.87,0,1,0,0-1.74.87.87,0,1,0,0,1.74Z" style="fill:#dbdbdb"></path><path d="M645.84,215.72a1.25,1.25,0,0,1,0-2.49,1.25,1.25,0,0,1,0,2.49Zm0,0a.87.87,0,1,0,0-1.74.87.87,0,1,0,0,1.74Z" style="fill:#dbdbdb"></path><path d="M638.76,215.72a1.25,1.25,0,0,1,0-2.49,1.25,1.25,0,0,1,0,2.49Zm0,0a.87.87,0,1,0,0-1.74.87.87,0,1,0,0,1.74Z" style="fill:#dbdbdb"></path><path d="M631.68,215.72a1.25,1.25,0,0,1,0-2.49,1.25,1.25,0,1,1,0,2.49Zm0,0a.87.87,0,1,0,0-1.74.87.87,0,1,0,0,1.74Z" style="fill:#dbdbdb"></path><path d="M624.61,215.72a1.25,1.25,0,0,1,0-2.49,1.25,1.25,0,0,1,0,2.49Zm0,0a.87.87,0,1,0,0-1.74.87.87,0,1,0,0,1.74Z" style="fill:#dbdbdb"></path><path d="M670.84,220.19c-16.13.49-33.87.49-50,0,16.13-.5,33.87-.5,50,0Z" style="fill:#dbdbdb"></path><rect x="642.8" y="54.33" width="6.07" height="58.75" transform="translate(562.13 729.55) rotate(-90)" style="fill:#ebebeb"></rect><polygon points="620.84 89.61 620.84 86.74 670.84 86.74 670.84 92.48 620.84 89.61" style="fill:#dbdbdb"></polygon><path d="M667.07,76.21a1.25,1.25,0,0,1,0-2.5,1.25,1.25,0,0,1,0,2.5Zm0,0a.88.88,0,1,0,0-1.75.88.88,0,1,0,0,1.75Z" style="fill:#dbdbdb"></path><path d="M660,76.21a1.25,1.25,0,0,1,0-2.5,1.25,1.25,0,0,1,0,2.5Zm0,0a.88.88,0,1,0,0-1.75.88.88,0,0,0,0,1.75Z" style="fill:#dbdbdb"></path><path d="M652.92,76.21a1.25,1.25,0,0,1,0-2.5,1.25,1.25,0,0,1,0,2.5Zm0,0a.88.88,0,0,0,0-1.75.88.88,0,1,0,0,1.75Z" style="fill:#dbdbdb"></path><path d="M645.84,76.21a1.25,1.25,0,0,1,0-2.5,1.25,1.25,0,0,1,0,2.5Zm0,0a.88.88,0,0,0,0-1.75.88.88,0,1,0,0,1.75Z" style="fill:#dbdbdb"></path><path d="M638.76,76.21a1.25,1.25,0,0,1,0-2.5,1.25,1.25,0,0,1,0,2.5Zm0,0a.88.88,0,1,0,0-1.75.88.88,0,1,0,0,1.75Z" style="fill:#dbdbdb"></path><path d="M631.68,76.21a1.25,1.25,0,0,1,0-2.5,1.25,1.25,0,0,1,0,2.5Zm0,0a.88.88,0,1,0,0-1.75.88.88,0,0,0,0,1.75Z" style="fill:#dbdbdb"></path><path d="M624.61,76.21a1.25,1.25,0,0,1,0-2.5,1.25,1.25,0,0,1,0,2.5Zm0,0a.88.88,0,0,0,0-1.75.88.88,0,1,0,0,1.75Z" style="fill:#dbdbdb"></path><path d="M670.84,80.67c-16.13.49-33.87.5-50,0,16.13-.5,33.87-.49,50,0Z" style="fill:#dbdbdb"></path><path d="M645.84,173.83a28.47,28.47,0,1,1,28.46-28.47A28.5,28.5,0,0,1,645.84,173.83Zm0-49.29a20.82,20.82,0,1,0,20.82,20.82A20.84,20.84,0,0,0,645.84,124.54Z" style="fill:#dbdbdb"></path><rect x="642.02" y="120.72" width="7.64" height="49.29" style="fill:#dbdbdb"></rect><rect x="621.2" y="141.54" width="49.29" height="7.64" style="fill:#dbdbdb"></rect><circle cx="645.84" cy="145.36" r="8.65" style="fill:#dbdbdb"></circle><rect x="71.45" y="72.3" width="33.65" height="11.19" transform="translate(176.56 155.79) rotate(180)" style="fill:#ebebeb"></rect><path d="M90.22,58.19c10-.15,23.8-.47,33.65-.45h.46v.46l0,11.19v.5h-.51l-16.82-.07c-5.69,0-11.38-.13-17.07-.19v-.24l.24-11.19Zm0,0,.25,11.19-.24-.25c5.6-.06,11.21-.16,16.82-.18l16.82-.07-.49.5,0-11.19.45.45c-9.66,0-23.82-.28-33.65-.45Z" style="fill:#ebebeb"></path><path d="M52.68,58.19c10-.15,23.79-.47,33.65-.45h.46v.46l0,11.19v.5h-.5l-16.82-.07c-5.69,0-11.38-.13-17.08-.19v-.24l.24-11.19Zm0,0,.25,11.19-.25-.25C58.29,69.07,63.9,69,69.51,69l16.82-.07-.5.5,0-11.19.45.45c-9.66,0-23.82-.28-33.65-.45Z" style="fill:#ebebeb"></path><path d="M555.2,159.53c10-.16,23.79-.47,33.65-.46h.45v.46l.05,11.19v.5h-.5L572,171.15c-5.69,0-11.38-.13-17.07-.19v-.24l.25-11.19Zm0,0,.24,11.19-.24-.25c5.61-.06,11.21-.16,16.82-.19l16.83-.06-.5.5,0-11.19.46.45c-9.67,0-23.83-.29-33.65-.45Z" style="fill:#ebebeb"></path><rect x="573.97" y="145.42" width="33.65" height="11.19" transform="translate(1181.58 302.02) rotate(180)" style="fill:#ebebeb"></rect><path d="M536.43,145.42c10-.16,23.79-.47,33.65-.46h.45v.46l0,11.19v.5h-.5L553.25,157c-5.69,0-11.38-.13-17.07-.19v-.24l.25-11.19Zm0,0,.24,11.19-.24-.25c5.6-.06,11.21-.16,16.82-.19l16.83-.06-.5.5,0-11.19.46.45c-9.67,0-23.83-.29-33.65-.45Z" style="fill:#ebebeb"></path><path d="M648.36,68.37c10-.15,23.8-.47,33.65-.45h.46v.45l0,11.19v.5H682L665.19,80c-5.69,0-11.38-.12-17.08-.19v-.24l.24-11.19Zm0,0,.25,11.19-.25-.24c5.61-.07,11.22-.16,16.83-.19L682,79.06l-.5.5,0-11.19.45.45c-9.66,0-23.82-.28-33.65-.45Z" style="fill:#ebebeb"></path><path d="M327.27,288.51c10-.15,23.79-.47,33.65-.45h.45v.45l.05,11.19v.5h-.5l-16.83-.07c-5.69,0-11.38-.12-17.07-.19v-.24l.25-11.19Zm0,0,.24,11.19-.24-.24c5.61-.07,11.22-.16,16.82-.19l16.83-.07-.5.5,0-11.19.46.46c-9.66,0-23.82-.29-33.65-.46Z" style="fill:#ebebeb"></path><path d="M73.4,402.85c10-.15,23.79-.47,33.65-.45h.45v.45l0,11.19v.5h-.5l-16.83-.07c-5.69,0-11.38-.12-17.07-.19V414l.24-11.19Zm0,0L73.64,414l-.24-.24c5.61-.07,11.22-.16,16.82-.19l16.83-.07-.5.5,0-11.19.45.46c-9.66,0-23.82-.29-33.65-.46Z" style="fill:#ebebeb"></path><rect x="54.63" y="388.74" width="33.65" height="11.19" transform="translate(142.91 788.67) rotate(180)" style="fill:#ebebeb"></rect><rect x="663.67" y="402.84" width="33.65" height="11.19" transform="translate(1360.98 816.87) rotate(180)" style="fill:#ebebeb"></rect></g><g id="freepik--Floor--inject-30"><path d="M53.08,459.74c206.24-.61,437.6-.61,643.84,0-206.24.62-437.6.61-643.84,0Z" style="fill:#263238"></path></g><g id="freepik--Pipeline--inject-30"><path d="M705.88,390.79h-399a68,68,0,0,1-68-68V186.44a12.19,12.19,0,0,0-12.19-12.19H44.12v-75H245.85a68,68,0,0,1,68,68V303.6a12.19,12.19,0,0,0,12.19,12.19H705.88Z" style="fill:#455a64"></path><rect x="671.21" y="309.22" width="9.11" height="88.13" transform="translate(1351.53 706.58) rotate(180)" style="fill:#455a64"></rect><polygon points="684.63 390.79 680.32 390.79 680.32 315.79 688.93 315.79 684.63 390.79" style="fill:#37474f"></polygon><path d="M664.52,321.44a1.78,1.78,0,0,1-3.56,0,1.78,1.78,0,0,1,3.56,0Zm0,0a1.41,1.41,0,0,0-2.81,0,1.41,1.41,0,0,0,2.81,0Z" style="fill:#37474f"></path><path d="M664.52,332.06a1.78,1.78,0,0,1-3.56,0,1.78,1.78,0,0,1,3.56,0Zm0,0a1.41,1.41,0,0,0-2.81,0,1.41,1.41,0,0,0,2.81,0Z" style="fill:#37474f"></path><path d="M664.52,342.67a1.78,1.78,0,0,1-3.56,0,1.78,1.78,0,0,1,3.56,0Zm0,0a1.41,1.41,0,0,0-2.81,0,1.41,1.41,0,0,0,2.81,0Z" style="fill:#37474f"></path><path d="M664.52,353.29a1.78,1.78,0,0,1-3.56,0,1.78,1.78,0,0,1,3.56,0Zm0,0a1.41,1.41,0,0,0-2.81,0,1.41,1.41,0,0,0,2.81,0Z" style="fill:#37474f"></path><path d="M664.52,363.91a1.78,1.78,0,0,1-3.56,0,1.78,1.78,0,0,1,3.56,0Zm0,0a1.41,1.41,0,0,0-2.81,0,1.41,1.41,0,0,0,2.81,0Z" style="fill:#37474f"></path><path d="M664.52,374.52a1.78,1.78,0,0,1-3.56,0,1.78,1.78,0,0,1,3.56,0Zm0,0a1.41,1.41,0,0,0-2.81,0,1.41,1.41,0,0,0,2.81,0Z" style="fill:#37474f"></path><path d="M664.52,385.14a1.78,1.78,0,0,1-3.56,0,1.78,1.78,0,0,1,3.56,0Zm0,0a1.41,1.41,0,0,0-2.81,0,1.41,1.41,0,0,0,2.81,0Z" style="fill:#37474f"></path><path d="M671.21,315.79c.49,24,.49,51,0,75-.49-24-.49-51,0-75Z" style="fill:#37474f"></path><rect x="382.91" y="309.22" width="9.11" height="88.13" transform="translate(774.93 706.58) rotate(180)" style="fill:#455a64"></rect><polygon points="396.32 390.79 392.02 390.79 392.02 315.79 400.63 315.79 396.32 390.79" style="fill:#37474f"></polygon><path d="M376.21,321.44a1.78,1.78,0,0,1-3.55,0,1.78,1.78,0,0,1,3.55,0Zm0,0a1.4,1.4,0,0,0-2.8,0,1.4,1.4,0,0,0,2.8,0Z" style="fill:#37474f"></path><path d="M376.21,332.06a1.78,1.78,0,0,1-3.55,0,1.78,1.78,0,0,1,3.55,0Zm0,0a1.4,1.4,0,0,0-2.8,0,1.4,1.4,0,0,0,2.8,0Z" style="fill:#37474f"></path><path d="M376.21,342.67a1.78,1.78,0,0,1-3.55,0,1.78,1.78,0,0,1,3.55,0Zm0,0a1.4,1.4,0,0,0-2.8,0,1.4,1.4,0,1,0,2.8,0Z" style="fill:#37474f"></path><path d="M376.21,353.29a1.78,1.78,0,0,1-3.55,0,1.78,1.78,0,0,1,3.55,0Zm0,0a1.4,1.4,0,0,0-2.8,0,1.4,1.4,0,0,0,2.8,0Z" style="fill:#37474f"></path><path d="M376.21,363.91a1.78,1.78,0,0,1-3.55,0,1.78,1.78,0,0,1,3.55,0Zm0,0a1.4,1.4,0,0,0-2.8,0,1.4,1.4,0,0,0,2.8,0Z" style="fill:#37474f"></path><path d="M376.21,374.52a1.78,1.78,0,0,1-3.55,0,1.78,1.78,0,0,1,3.55,0Zm0,0a1.4,1.4,0,0,0-2.8,0,1.4,1.4,0,1,0,2.8,0Z" style="fill:#37474f"></path><path d="M376.21,385.14a1.78,1.78,0,0,1-3.55,0,1.78,1.78,0,0,1,3.55,0Zm0,0a1.4,1.4,0,0,0-2.8,0,1.4,1.4,0,0,0,2.8,0Z" style="fill:#37474f"></path><path d="M382.91,315.79c.49,24,.49,51,0,75-.49-24-.49-51,0-75Z" style="fill:#37474f"></path><rect x="518.77" y="309.22" width="9.11" height="88.13" transform="translate(1046.65 706.58) rotate(180)" style="fill:#455a64"></rect><polygon points="532.19 390.79 527.88 390.79 527.88 315.79 536.49 315.79 532.19 390.79" style="fill:#37474f"></polygon><path d="M512.08,321.44a1.78,1.78,0,0,1-3.56,0,1.78,1.78,0,0,1,3.56,0Zm0,0a1.41,1.41,0,0,0-2.81,0,1.41,1.41,0,0,0,2.81,0Z" style="fill:#37474f"></path><path d="M512.08,332.06a1.78,1.78,0,0,1-3.56,0,1.78,1.78,0,0,1,3.56,0Zm0,0a1.41,1.41,0,0,0-2.81,0,1.41,1.41,0,0,0,2.81,0Z" style="fill:#37474f"></path><path d="M512.08,342.67a1.78,1.78,0,0,1-3.56,0,1.78,1.78,0,0,1,3.56,0Zm0,0a1.41,1.41,0,0,0-2.81,0,1.41,1.41,0,0,0,2.81,0Z" style="fill:#37474f"></path><path d="M512.08,353.29a1.78,1.78,0,0,1-3.56,0,1.78,1.78,0,0,1,3.56,0Zm0,0a1.41,1.41,0,0,0-2.81,0,1.41,1.41,0,0,0,2.81,0Z" style="fill:#37474f"></path><path d="M512.08,363.91a1.78,1.78,0,0,1-3.56,0,1.78,1.78,0,0,1,3.56,0Zm0,0a1.41,1.41,0,0,0-2.81,0,1.41,1.41,0,0,0,2.81,0Z" style="fill:#37474f"></path><path d="M512.08,374.52a1.78,1.78,0,0,1-3.56,0,1.78,1.78,0,0,1,3.56,0Zm0,0a1.41,1.41,0,0,0-2.81,0,1.41,1.41,0,0,0,2.81,0Z" style="fill:#37474f"></path><path d="M512.08,385.14a1.78,1.78,0,0,1-3.56,0,1.78,1.78,0,0,1,3.56,0Zm0,0a1.41,1.41,0,0,0-2.81,0,1.41,1.41,0,0,0,2.81,0Z" style="fill:#37474f"></path><path d="M518.77,315.79c.49,24,.49,51,0,75-.49-24-.49-51,0-75Z" style="fill:#37474f"></path><rect x="270.89" y="231.08" width="9.11" height="88.13" transform="translate(550.58 -0.3) rotate(90)" style="fill:#455a64"></rect><polygon points="313.87 284 313.87 279.7 238.87 279.7 238.87 288.31 313.87 284" style="fill:#37474f"></polygon><path d="M308.22,265a1.78,1.78,0,0,1,0-3.56,1.78,1.78,0,0,1,0,3.56Zm0,0a1.41,1.41,0,0,0,0-2.81,1.41,1.41,0,0,0,0,2.81Z" style="fill:#37474f"></path><path d="M297.6,265a1.78,1.78,0,0,1,0-3.56,1.78,1.78,0,0,1,0,3.56Zm0,0a1.41,1.41,0,0,0,0-2.81,1.41,1.41,0,0,0,0,2.81Z" style="fill:#37474f"></path><path d="M287,265a1.78,1.78,0,0,1,0-3.56,1.78,1.78,0,0,1,0,3.56Zm0,0a1.41,1.41,0,0,0,0-2.81,1.41,1.41,0,0,0,0,2.81Z" style="fill:#37474f"></path><path d="M276.37,265a1.78,1.78,0,0,1,0-3.56,1.78,1.78,0,0,1,0,3.56Zm0,0a1.41,1.41,0,0,0,0-2.81,1.41,1.41,0,0,0,0,2.81Z" style="fill:#37474f"></path><path d="M265.75,265a1.78,1.78,0,0,1,0-3.56,1.78,1.78,0,0,1,0,3.56Zm0,0a1.41,1.41,0,0,0,0-2.81,1.41,1.41,0,0,0,0,2.81Z" style="fill:#37474f"></path><path d="M255.13,265a1.78,1.78,0,0,1,0-3.56,1.78,1.78,0,0,1,0,3.56Zm0,0a1.41,1.41,0,0,0,0-2.81,1.41,1.41,0,0,0,0,2.81Z" style="fill:#37474f"></path><path d="M244.52,265a1.78,1.78,0,0,1,0-3.56,1.78,1.78,0,0,1,0,3.56Zm0,0a1.41,1.41,0,0,0,0-2.81,1.41,1.41,0,0,0,0,2.81Z" style="fill:#37474f"></path><path d="M313.87,270.59c-24,.49-51,.49-75,0,24-.49,51-.49,75,0Z" style="fill:#37474f"></path><rect x="174.34" y="92.22" width="9.11" height="88.13" style="fill:#455a64"></rect><polygon points="187.75 99.25 183.45 99.25 183.45 174.25 192.05 174.25 187.75 99.25" style="fill:#37474f"></polygon><path d="M170,105a1.78,1.78,0,0,1-3.56,0,1.78,1.78,0,0,1,3.56,0Zm0,0a1.41,1.41,0,0,0-2.81,0,1.41,1.41,0,0,0,2.81,0Z" style="fill:#37474f"></path><path d="M170,115.6a1.78,1.78,0,0,1-3.56,0,1.78,1.78,0,0,1,3.56,0Zm0,0a1.41,1.41,0,0,0-2.81,0,1.41,1.41,0,0,0,2.81,0Z" style="fill:#37474f"></path><path d="M170,126.22a1.78,1.78,0,0,1-3.56,0,1.78,1.78,0,0,1,3.56,0Zm0,0a1.41,1.41,0,0,0-2.81,0,1.41,1.41,0,0,0,2.81,0Z" style="fill:#37474f"></path><path d="M170,136.83a1.78,1.78,0,0,1-3.56,0,1.78,1.78,0,0,1,3.56,0Zm0,0a1.41,1.41,0,0,0-2.81,0,1.41,1.41,0,0,0,2.81,0Z" style="fill:#37474f"></path><path d="M170,147.45a1.78,1.78,0,0,1-3.56,0,1.78,1.78,0,0,1,3.56,0Zm0,0a1.41,1.41,0,0,0-2.81,0,1.41,1.41,0,0,0,2.81,0Z" style="fill:#37474f"></path><path d="M170,158.07a1.78,1.78,0,0,1-3.56,0,1.78,1.78,0,0,1,3.56,0Zm0,0a1.41,1.41,0,0,0-2.81,0,1.41,1.41,0,0,0,2.81,0Z" style="fill:#37474f"></path><path d="M170,168.68a1.78,1.78,0,0,1-3.56,0,1.78,1.78,0,0,1,3.56,0Zm0,0a1.41,1.41,0,0,0-2.81,0,1.41,1.41,0,0,0,2.81,0Z" style="fill:#37474f"></path><path d="M174.34,174.33c-.49-24-.5-51,0-75,.49,24,.48,51,0,75Z" style="fill:#37474f"></path><rect x="411.63" y="309.22" width="86.26" height="81.57" style="fill:#455a64"></rect><polygon points="502.19 390.79 497.89 390.79 497.89 315.79 506.5 315.79 502.19 390.79" style="fill:#37474f"></polygon><path d="M408,321.44a1.78,1.78,0,0,1-3.55,0,1.78,1.78,0,0,1,3.55,0Zm0,0a1.4,1.4,0,0,0-2.8,0,1.4,1.4,0,0,0,2.8,0Z" style="fill:#37474f"></path><path d="M408,332.06a1.78,1.78,0,0,1-3.55,0,1.78,1.78,0,0,1,3.55,0Zm0,0a1.4,1.4,0,0,0-2.8,0,1.4,1.4,0,0,0,2.8,0Z" style="fill:#37474f"></path><path d="M408,342.67a1.78,1.78,0,0,1-3.55,0,1.78,1.78,0,0,1,3.55,0Zm0,0a1.4,1.4,0,0,0-2.8,0,1.4,1.4,0,1,0,2.8,0Z" style="fill:#37474f"></path><path d="M408,353.29a1.78,1.78,0,0,1-3.55,0,1.78,1.78,0,0,1,3.55,0Zm0,0a1.4,1.4,0,0,0-2.8,0,1.4,1.4,0,0,0,2.8,0Z" style="fill:#37474f"></path><path d="M408,363.91a1.78,1.78,0,0,1-3.55,0,1.78,1.78,0,0,1,3.55,0Zm0,0a1.4,1.4,0,0,0-2.8,0,1.4,1.4,0,0,0,2.8,0Z" style="fill:#37474f"></path><path d="M408,374.52a1.78,1.78,0,0,1-3.55,0,1.78,1.78,0,0,1,3.55,0Zm0,0a1.4,1.4,0,0,0-2.8,0,1.4,1.4,0,1,0,2.8,0Z" style="fill:#37474f"></path><path d="M408,385.14a1.78,1.78,0,0,1-3.55,0,1.78,1.78,0,0,1,3.55,0Zm0,0a1.4,1.4,0,0,0-2.8,0,1.4,1.4,0,0,0,2.8,0Z" style="fill:#37474f"></path><polygon points="478.94 309.22 430.58 309.22 437.58 299.03 471.94 299.03 478.94 309.22" style="fill:#37474f"></polygon><rect x="440.02" y="294.73" width="29.48" height="4.3" style="fill:#263238"></rect><polygon points="451.84 289.39 448.43 289.39 436.54 276.21 439.95 276.21 451.84 289.39" style="fill:#263238"></polygon><polygon points="457.68 289.39 461.1 289.39 472.98 276.21 469.57 276.21 457.68 289.39" style="fill:#263238"></polygon><rect x="445.77" y="282.6" width="17.98" height="12.13" style="fill:#78C127"></rect><rect x="453.43" y="276.21" width="2.66" height="13.18" style="fill:#263238"></rect><path d="M478.41,276.15h-47.3a4,4,0,0,1-4-4h0a4,4,0,0,1,4-4h47.3a4,4,0,0,1,4,4h0A4,4,0,0,1,478.41,276.15Z" style="fill:#78C127"></path><rect x="330.98" y="401.57" width="13.12" height="58.14" style="fill:#263238"></rect><polygon points="325.94 390.79 349.13 390.79 345.77 401.57 329.3 401.57 325.94 390.79" style="fill:#37474f"></polygon><rect x="94.91" y="185.03" width="13.12" height="274.68" style="fill:#263238"></rect><polygon points="89.88 174.25 113.06 174.25 109.7 185.03 93.23 185.03 89.88 174.25" style="fill:#37474f"></polygon><rect x="594.24" y="401.57" width="13.12" height="58.14" style="fill:#263238"></rect><polygon points="589.2 390.79 612.38 390.79 609.03 401.57 592.56 401.57 589.2 390.79" style="fill:#37474f"></polygon></g><g id="freepik--character-2--inject-30"><path d="M529.3,230.2c15.48,6.47,43.55,27.59,43.38,34.9-.33,13.49-30.57,31.06-36.5,35-2.52,1.69-13.47-21.45-10.81-23.32,2.32-1.62,19.48-9.38,19.28-11.8-.07-1-10.37-12.05-19.42-25.61C518.3,229,524.72,228.29,529.3,230.2Z" style="fill:#eb9481"></path><path d="M530.53,274s-2.51,1.63-9.53,3.65c-5.48,1.57-17.26,9.09-19.14,25-.72,6.1,3.24,9.27,5.12,3.07,1.32-4.37,1.86-7.51,2.69-8.82,0,0,2.58,6.49,6.51,7.45a74.76,74.76,0,0,0,10.46,1.77,15,15,0,0,0,.5-1.93,8.51,8.51,0,0,0,8.31-3.63l5.3-3.3Z" style="fill:#eb9481"></path><path d="M516.73,280.51c-1.68,2.47-5.16,7.76-6.49,13.09-1.49,5.91-2.76,17.69,1.62,18.74,3.2.77,4.08-3.68,4.08-3.68s.51,5,3.56,5c2.77.06,3.25-3.43,3.25-3.43s.82,3,3.51,2.51c3.23-.56,1-6.69,3.76-10.08C530.65,301.94,516.73,280.51,516.73,280.51Z" style="fill:#eb9481"></path><path d="M516.74,294.12a24.31,24.31,0,0,0-.89,14.45c0,.12.14.16.14,0a59.54,59.54,0,0,1,.81-14.47A0,0,0,0,0,516.74,294.12Z" style="fill:#263238"></path><path d="M522.66,295.8c-.8,2.33-1.76,9.15,0,14.47,0,.12.15.15.13,0a64.26,64.26,0,0,1,0-14.49S522.67,295.77,522.66,295.8Z" style="fill:#263238"></path><path d="M526.59,275.85l20.2,23.71s28.72-22.83,26.21-35.74c-1.63-8.44-28.72-27.34-40.6-32.85s-14.31-2.23-7.6,9.18,19.07,24.85,19.07,25.16S526.59,275.85,526.59,275.85Z" style="fill:#78C127"></path><path d="M555.28,245.34l-16.5,13.89c-2.16-2.6-4.78-5.83-7.33-9.26l13.81-11.63C548.56,240.49,552,242.88,555.28,245.34Z" style="fill:#ebebeb"></path><path d="M571.13,272.7c-6.17,12.41-24.34,26.86-24.34,26.86l-20.2-23.71s17.28-10.24,17.28-10.54-12.36-13.76-19.06-25.16c-5.82-9.9-4.77-13.68,3.37-10.91Z" style="opacity:0.1"></path><path d="M658,456.59c-.44-2.33-31.89-58.24-34.44-59.61-1-.53-9.37,3.57-19.4,8.83l-.31.17c-2.07,1.08-42.82,7.23-42.82,7.23l20.46,36.61,42.25-7.54.6-.36s21.61,16,24.58,17.23S658.44,458.91,658,456.59Z" style="fill:#eb9481"></path><path d="M595.94,407.62l20.46,36,7.32-1.32.61-.35s21.62,16,24.57,17.22,9.55-.24,9.09-2.55S626.1,398.35,623.56,397c-1-.54-9.38,3.56-19.41,8.82-.1.05-.2.12-.31.17C603.33,406.25,596.15,407.55,595.94,407.62Z" style="fill:#ebebeb"></path><path d="M658.25,456.86c-.45-2.34-32-58.92-34.58-60.31-1-.54-9.47,3.58-19.61,8.84l20.24,36.54s21.77,16.25,24.75,17.48S658.69,459.21,658.25,456.86Z" style="fill:#455a64"></path><path d="M655.53,457.31c-5.52-9.35-26.92-47.6-31.67-57.26,0-.08,0-.11.06,0,5.68,9.15,26.76,47.57,31.77,57.22C655.79,457.43,655.65,457.51,655.53,457.31Z" style="fill:#263238"></path><path d="M645,456.91a8.7,8.7,0,0,1-.85-7A8.47,8.47,0,0,1,648,445c.06,0,.12.07.06.11a10.09,10.09,0,0,0-3,11.73A.07.07,0,0,1,645,456.91Z" style="fill:#263238"></path><path d="M627.3,445.08c-2.17-3.77-3.29-8.92-1.5-13,.07-.16.29-.05.3.09a60,60,0,0,0,1.7,12.72A.27.27,0,0,1,627.3,445.08Z" style="fill:#263238"></path><path d="M630.07,447.37c-2.17-3.77-3.28-8.91-1.49-13,.07-.16.29-.06.29.08a60.17,60.17,0,0,0,1.71,12.73A.28.28,0,0,1,630.07,447.37Z" style="fill:#263238"></path><path d="M632.85,449.66c-2.17-3.76-3.28-8.91-1.5-13,.07-.16.3-.06.3.09a60.17,60.17,0,0,0,1.71,12.72A.28.28,0,0,1,632.85,449.66Z" style="fill:#263238"></path><path d="M635.63,452c-2.17-3.77-3.29-8.92-1.5-13,.07-.16.29-.06.3.09a60.07,60.07,0,0,0,1.7,12.72A.27.27,0,0,1,635.63,452Z" style="fill:#263238"></path><path d="M624.85,451.42c1.5-3.52,1.42-7.57,1.79-11.31a.53.53,0,0,0-.69-.51.12.12,0,0,0-.18-.06A22.8,22.8,0,0,0,618,448.4c-1,2.11-1.2,5.4,1.47,6.43C622,455.81,624,453.48,624.85,451.42Zm-3,1.93c-4.35,1.93-3.25-3.56-2.46-5.09a24.27,24.27,0,0,1,1.79-2.81,68,68,0,0,1,4.43-5.28c-.29,1.83-.42,3.67-.64,5.5C624.66,447.86,624.2,452.29,621.81,453.35Z" style="fill:#263238"></path><path d="M615.83,427.41c-2.31,1.68-1.27,4.81.23,6.59a22.86,22.86,0,0,0,9.79,6.58c.09,0,.14,0,.16-.1.32,0,.67-.31.53-.67-1.31-3.53-2.27-7.47-4.62-10.49C620.55,427.56,618,425.82,615.83,427.41Zm7.63,7.45c.69,1.72,1.29,3.46,2,5.16-1.9-1.29-3.85-2.49-5.63-4a24.94,24.94,0,0,1-2.45-2.26c-1.15-1.27-3.62-6.31,1.07-5.55C621.07,428.65,622.65,432.81,623.46,434.86Z" style="fill:#263238"></path><path d="M513.62,292.94s-.82,22.81,2.6,34c0,0,3.73,2,4.85,2.67,0,0-28.34,67.86-26.72,94,.52,8.56,10.22,22.63,20,28.72,17.33,10.78,100.12-2.53,100.12-2.53l-10.49-47s-55.44,7.45-56.79,4.55c-1.71-3.67,10.9-36.68,19.4-59.87.86-2.34,9.41-11,8.42-26.62-1-15.23-8.84-27.93-8.84-27.93Z" style="fill:#78C127"></path><path d="M587.93,453.38c-3.73.43-7.7.85-11.78,1.24l-9.23-47.53c3.8-.35,7.84-.77,11.79-1.2Z" style="fill:#ebebeb"></path><path d="M594.23,408.46c-12.44.81-45,3.78-46.43,3.78a13,13,0,0,1-3-.28,3.77,3.77,0,0,1-2.35-1.39c-.77-1.16-.36-2.63-.09-3.88q.88-4.11,2-8.18c2.94-11,7.15-24.77,10.76-35.59l5.58-16.7c.45-1.35.91-2.71,1.48-4a33.25,33.25,0,0,1,1.83-3.5,32.75,32.75,0,0,0,3.17-6.88c3.15-10.37.12-21.1-3.57-30.89-.49-1.31-1-2.62-1.54-3.92a.08.08,0,0,0-.15.05c3.36,10.33,7.37,21.08,5.11,32.1a26.51,26.51,0,0,1-2.69,7.42c-.65,1.18-1.35,2.33-2,3.52a28.46,28.46,0,0,0-1.63,3.76c-2,5.47-3.73,11-5.58,16.56-3.69,11-7.93,24.91-11,36.08-.76,2.78-1.47,5.58-2.1,8.39-.46,2.07-1.5,4.9.31,6.62,1.33,1.26,3.41,1.41,5.14,1.42,2.91,0,42.19-3.33,46.82-4.06C594.5,408.82,594.49,408.44,594.23,408.46Z" style="opacity:0.1"></path><path d="M605.21,446.82c-.86-4.92-3.9-17.75-4.26-19.31-.78-3.33-4.09-17.49-4.41-18.12,0-.07-.17,0-.17,0,0,1.1,3.25,17,3.52,18.23.85,3.67,4.23,16.46,5,19.2C604.9,447,605.24,447,605.21,446.82Z" style="opacity:0.1"></path><path d="M504.06,376.07l60-21.74c.84-2.31,1.69-4.6,2.51-6.84s9.41-11,8.41-26.63c-1-15.22-8.83-27.92-8.83-27.92H513.62s-.82,22.81,2.6,34c0,0,3.74,2,4.85,2.67C521.07,329.65,511.72,352.05,504.06,376.07Z" style="opacity:0.1"></path><path d="M416.45,463c2.26.68,66.38-1.44,68.77-3.07.92-.6,1.15-10,1.11-21.28v-.36c0-2.33-5.3-41.44-5.3-41.44l-42.21,1.35,6.13,41,0,.7s-24.18,11.79-26.62,13.86S414.18,462.36,416.45,463Z" style="fill:#eb9481"></path><path d="M416.45,463c2.26.68,66.38-1.45,68.77-3.08.92-.61,1.16-10,1.11-21.28v-.36c0-.64-.4-4-1-8.62l-42.1,1.65,1.69,7.88,0,.7s-24.19,11.79-26.63,13.86S414.18,462.36,416.45,463Z" style="fill:#ebebeb"></path><path d="M416,463.31c2.29.68,67-1.47,69.45-3.11.92-.62,1.16-10.07,1.12-21.49L444.78,440s-24.42,11.92-26.88,14S413.67,462.63,416,463.31Z" style="fill:#455a64"></path><path d="M416.8,460.69c10.85-.63,54.65-2.13,65.41-1.93.09,0,.09.06,0,.07-10.74.85-54.55,2-65.41,2C416.58,460.87,416.57,460.71,416.8,460.69Z" style="fill:#263238"></path><path d="M422,451.51a8.7,8.7,0,0,1,6.58,2.43,8.45,8.45,0,0,1,2.62,5.71c0,.07-.12.07-.13,0a10.08,10.08,0,0,0-9.07-8A.07.07,0,0,1,422,451.51Z" style="fill:#263238"></path><path d="M440.61,441.19c4.34-.2,9.43,1.17,12.24,4.63.11.13-.08.29-.21.22a60.64,60.64,0,0,0-12.09-4.31A.28.28,0,0,1,440.61,441.19Z" style="fill:#263238"></path><path d="M437.3,442.61c4.34-.2,9.43,1.16,12.24,4.63.11.13-.08.28-.21.22a60,60,0,0,0-12.09-4.31A.28.28,0,0,1,437.3,442.61Z" style="fill:#263238"></path><path d="M434,444c4.34-.2,9.43,1.16,12.24,4.63.11.13-.08.28-.21.22a60,60,0,0,0-12.09-4.31A.28.28,0,0,1,434,444Z" style="fill:#263238"></path><path d="M430.68,445.45c4.34-.2,9.43,1.16,12.24,4.63.11.13-.08.28-.21.22A60,60,0,0,0,430.62,446,.28.28,0,0,1,430.68,445.45Z" style="fill:#263238"></path><path d="M436.09,436.11c2.44,2.95,6.08,4.74,9.24,6.77a.53.53,0,0,0,.77-.37c.07,0,.14,0,.13-.13a22.8,22.8,0,0,0-4.32-11c-1.42-1.85-4.25-3.54-6.38-1.64S434.66,434.39,436.09,436.11Zm-.33-3.59c.28-4.74,4.66-1.25,5.66.15a26.7,26.7,0,0,1,1.68,2.88c1.06,2.05,1.81,4.22,2.66,6.36-1.49-1.1-3.06-2.06-4.6-3.1C439.34,437.58,435.61,435.14,435.76,432.52Z" style="fill:#263238"></path><path d="M461.56,439.09c-.43-2.82-3.69-3.33-6-2.81A22.85,22.85,0,0,0,445.27,442a.11.11,0,0,0,0,.18.53.53,0,0,0,.35.79c3.74.45,7.67,1.4,11.44.69C459.27,443.22,462,441.76,461.56,439.09Zm-10.12,3.37c-1.84-.17-3.66-.44-5.51-.55a66.84,66.84,0,0,1,6.11-3.19,22.94,22.94,0,0,1,3.13-1.14c1.66-.45,7.26-.34,4.45,3.49C458.07,443.18,453.64,442.68,451.44,442.46Z" style="fill:#263238"></path><path d="M443,438.71l44.39-1.31s-8.45-69.65-5.47-74.11c1.3-2,66.48,4.57,85.55-16.08,17.44-18.89-.31-54.27-.31-54.27h-53.5s-1.09,15.17-4,21.23c-1.23,2.6-61-1.11-70.35,16C426.8,353,443,438.71,443,438.71Z" style="fill:#78C127"></path><path d="M485.17,418.21l-45.4,1.08c-.54-3.6-1.09-7.57-1.64-11.77L484,406.43C484.36,410.53,484.78,414.52,485.17,418.21Z" style="fill:#ebebeb"></path><path d="M482.57,428.8c-5-.07-18.17.53-19.77.59-3.42.15-17.94.76-18.62,1-.07,0-.06.16,0,.17,1.08.22,17.34,0,18.56-.06,3.76-.15,17-1.08,19.79-1.31C482.71,429.14,482.73,428.8,482.57,428.8Z" style="opacity:0.1"></path><path d="M554.53,316.69c-1.27,0-10.31-.34-13.22-2.9-2.6-2.29-5.64-9.08-6-11.22,0-.1-.18-.09-.17,0,.33,2.24,1.39,9.07,5.28,12.33,3.22,2.7,11.82,2.55,14.19,2C554.75,316.9,554.68,316.69,554.53,316.69Z" style="opacity:0.1"></path><path d="M476.46,360.05a2.93,2.93,0,0,1,2.46-2.33,24.19,24.19,0,0,1,4.34-.09c3.35,0,6.69.07,10,.08,13.17,0,26.46-.34,39.42-2.94a92.57,92.57,0,0,0,18.43-5.56c5-2.18,10.06-5.16,13.19-9.79,3.61-5.33,3.89-12.29,3.77-18.52a71,71,0,0,0-3.23-19.82q-.76-2.44-1.73-4.82c0-.1.1-.19.15-.09a68.41,68.41,0,0,1,5.22,19.13,66.46,66.46,0,0,1,.45,9.77,37.51,37.51,0,0,1-1.24,9.49c-3.41,11.66-16.48,16.47-27,19.43-12.71,3.57-26,4.56-39.12,4.75-6.61.1-13.22,0-19.83-.09-1.27,0-3.34-.37-4.09,1a7.11,7.11,0,0,0-.59,2.41c-.15.93-.25,1.86-.32,2.8a79,79,0,0,0,.14,10.55q.63,10.69,1.48,21.39c.57,7.16,1.84,17.29,2.36,24.46.13,1.76.3,3.51.47,5.26,0,.2-.33.24-.36,0-1.83-14.17-3.62-31.37-4.55-45.62-.23-3.52-.49-7.05-.59-10.57A38.05,38.05,0,0,1,476.46,360.05Z" style="opacity:0.1"></path><path d="M571.23,303.25,512,305.55c1.13-6.17,1.59-12.61,1.59-12.61h53.5A82.67,82.67,0,0,1,571.23,303.25Z" style="opacity:0.1"></path><path d="M570,299.7l-57.7,4.19s-3.7-2.11-4.57-5.85c-2.69-11.72-1.6-39,.8-61,1-9.17,12.45-12.39,20.8-7,20,12.9,37.64,52,42.51,64.48C572.72,296.75,570,299.83,570,299.7Z" style="fill:#78C127"></path><path d="M556.9,263.5,506.36,267c.13-3.88.34-7.88.6-11.88l42.91-3C552.36,255.85,554.71,259.68,556.9,263.5Z" style="fill:#ebebeb"></path><path d="M513.42,240.82c3.32-.17,8.74-5.71,9.67-10.79.06-.35-1.42-3.31-3.06-7-1-2.24-2-4.76-2.8-7.12-.16-.48-13.63,8.52-13.63,8.52A39.63,39.63,0,0,1,508,233a5.46,5.46,0,0,1,.22,1,1.22,1.22,0,0,0,0,.17C508.6,236.15,509.87,241,513.42,240.82Z" style="fill:#eb9481"></path><path d="M508.25,234a.85.85,0,0,1,0,.17,9.59,9.59,0,0,0,1.55-.43c8.66-3.08,7.34-14.77,6.87-17.68-2.51,1.25-13.11,8.34-13.11,8.34A39.63,39.63,0,0,1,508,233,5.59,5.59,0,0,1,508.25,234Z" style="fill:#263238"></path><path d="M513.88,196.61c3.2,4.83,4.94,21,2.18,25.53-4,6.59-12.83,9.72-19,4.39-6-5.17-7.88-26.28-4.58-30.64C497.35,189.47,509.16,189.48,513.88,196.61Z" style="fill:#eb9481"></path><path d="M501.64,210.23s.09,0,.1.08c.09,1.1.37,2.33,1.4,2.58a0,0,0,0,1,0,.06C501.91,212.92,501.55,211.28,501.64,210.23Z" style="fill:#263238"></path><path d="M502.49,209c1.73-.33,2.27,3.17.66,3.47S501,209.26,502.49,209Z" style="fill:#263238"></path><path d="M495.4,211.36s-.08.06-.07.11c.2,1.08.25,2.34-.67,2.85,0,0,0,.07,0,.06C495.84,214,495.76,212.35,495.4,211.36Z" style="fill:#263238"></path><path d="M494.26,210.38c-1.76.13-1.36,3.64.27,3.52S495.74,210.26,494.26,210.38Z" style="fill:#263238"></path><path d="M503.62,207.17a13.67,13.67,0,0,1-1.42-.27,2.37,2.37,0,0,1-1.41-.55.74.74,0,0,1,0-.91,1.84,1.84,0,0,1,1.81-.48,2.75,2.75,0,0,1,1.73.93A.8.8,0,0,1,503.62,207.17Z" style="fill:#263238"></path><path d="M492.64,208.82a14.17,14.17,0,0,0,1.34-.57,2.35,2.35,0,0,0,1.25-.84.76.76,0,0,0-.18-.9,1.86,1.86,0,0,0-1.88-.06,2.68,2.68,0,0,0-1.49,1.28A.79.79,0,0,0,492.64,208.82Z" style="fill:#263238"></path><path d="M504.18,220.12c-.22.3-.43.69-.82.78a2.87,2.87,0,0,1-1.2-.1s-.07,0,0,.07a1.46,1.46,0,0,0,1.46.37,1.16,1.16,0,0,0,.71-1.08C504.3,220.09,504.21,220.08,504.18,220.12Z" style="fill:#263238"></path><path d="M502.54,217.06a3.69,3.69,0,0,1-2.21,2,4.42,4.42,0,0,1-1.31.26.77.77,0,0,1-.26,0h-.24a.28.28,0,0,1-.26-.21h0s0-.08,0-.12h0v-.1c-.15-.83-.26-2.11-.26-2.11-.28.2-1.73,1.14-1.77.7a55.45,55.45,0,0,1-.27-11.38c0-.12.19-.12.2,0,.46,3.48.3,7,.71,10.53a6.39,6.39,0,0,1,1.66-.79c.12,0,.17,2.47.27,2.84a.1.1,0,0,0,0,0,5.16,5.16,0,0,0,3.64-1.77C502.5,216.9,502.6,217,502.54,217.06Z" style="fill:#263238"></path><path d="M499.44,218.84a4.54,4.54,0,0,0,2,1.09,2,2,0,0,0,1.21-.11c.83-.36.73-1.16.47-1.81a5,5,0,0,0-.55-1A5.76,5.76,0,0,1,499.44,218.84Z" style="fill:#263238"></path><path d="M501.4,219.93a2,2,0,0,0,1.21-.11c.83-.36.73-1.16.47-1.81A2.05,2.05,0,0,0,501.4,219.93Z" style="fill:#ff99ba"></path><path d="M517.69,209.76c-2.1,1.28-4.68-.93-5.66-2.19s-2.2-9.46-3.91-11.28S503.7,194,502,195s-3.45,4.24-4.87,4.51-2.61-2.65-3.57-2.37c-2.13.6-2.89,6.47-2.61,8.91,0,0-3.19-10.46,6.73-14.24,9.68-3.7,15.26,2.07,17,4.82C517.9,201.93,517.69,209.76,517.69,209.76Z" style="fill:#263238"></path><path d="M513.76,210.43s2.12-6,4.72-5.32,2,8.57-.41,10.29a2.8,2.8,0,0,1-4-.46Z" style="fill:#eb9481"></path><path d="M518.24,207.38a0,0,0,0,1,0,.07c-1.66,1.27-2.16,3.26-2.36,5.24a1.55,1.55,0,0,1,2.12-1c.06,0,0,.11,0,.11a1.73,1.73,0,0,0-1.67,1.09,7.82,7.82,0,0,0-.47,1.72c0,.19-.37.18-.36,0v0C514.83,212.15,515.76,208.32,518.24,207.38Z" style="fill:#263238"></path><path d="M488.73,204.12s-1.1-16.54,13.65-17.63,16.09,15.43,16.09,15.43Z" style="fill:#78C127"></path><rect x="487.58" y="201.84" width="32.04" height="2.35" transform="translate(-13.61 37.72) rotate(-4.23)" style="fill:#78C127"></rect><polygon points="503.27 201.87 496.62 202.36 496.99 186.04 503.64 185.54 503.27 201.87" style="fill:#78C127"></polygon><polygon points="503.27 201.87 496.62 202.36 496.99 186.04 503.64 185.54 503.27 201.87" style="opacity:0.1"></polygon><path d="M530,238.42c5.3,17.11,5.21,54.84-.27,60.4-8.48,8.58-45-4.74-52.3-6.88-3.11-.91,9-24.65,12.31-23.75,2.92.79,20.42,8.45,22.27,6.64.77-.75,2.77-16.75,7.68-33.45C523.46,228.59,528.44,233.36,530,238.42Z" style="fill:#eb9481"></path><path d="M495.82,271.11s-2.94-1.28-8.86-6.33c-4.63-4-18.26-10-33.54-2.32-5.86,3-6.34,8.34.28,6.36,4.67-1.4,7.78-2.77,9.43-2.8,0,0-4.25,6.13-2.79,10.19a79.79,79.79,0,0,0,4.58,10.35,17.25,17.25,0,0,0,2-.68,9.09,9.09,0,0,0,8.12,5.26l5.59,1.81Z" style="fill:#eb9481"></path><path d="M481.92,262.64c-3.19,0-9.95,0-15.48,1.92-6.14,2.16-17.38,8-15.74,12.49,1.2,3.31,5.69,1.47,5.69,1.47s-4.14,3.38-2.4,6.13c1.59,2.51,5,.88,5,.88s-2.16,2.48-.16,4.6c2.39,2.55,6.53-3.07,11.19-2.58C471,287.66,481.92,262.64,481.92,262.64Z" style="fill:#eb9481"></path><path d="M469.8,270.67a26,26,0,0,0-13.39,7.71c-.08.1-.05.22,0,.15a63.32,63.32,0,0,1,13.36-7.8A0,0,0,1,0,469.8,270.67Z" style="fill:#263238"></path><path d="M471.8,276.93c-2.55.65-9.19,3.82-12.9,8.5-.09.1,0,.22.05.14A68.58,68.58,0,0,1,471.83,277S471.84,276.92,471.8,276.93Z" style="fill:#263238"></path><path d="M495,269.44,482.5,296.8s43.86,12.87,49.17,5.38,3.46-47.19-.16-60.69-8-13.25-12.73.06-7.3,32.63-7.55,32.84S495,269.44,495,269.44Z" style="fill:#78C127"></path><path d="M534.93,273.72l-22.84-4c.51-3,1.24-7.1,2.21-11.59l20.05,3.51C534.64,265.58,534.84,269.68,534.93,273.72Z" style="fill:#ebebeb"></path><path d="M495,269.44a164.55,164.55,0,0,1,24.7,7.86,164.19,164.19,0,0,1-24.7-7.86Z" style="fill:#263238"></path><path d="M533.49,252.79c.94,8.23,5.55,48.28-3.24,50.86-9.2,3.46-25.75-1-35.19-3.55,7.51,1.53,31.56,7.38,36.73,1.19,2.53-4.68,2.4-10.49,2.74-15.74.28-10.93-.3-21.86-1-32.76Z" style="fill:#263238"></path><path d="M534.94,256.27c.54,2.49.61,5.34-.7,7.61.3-2.53.21-5.1.7-7.61Z" style="fill:#263238"></path><path d="M511.23,274.39a161,161,0,0,1,5.34-25,159.63,159.63,0,0,1-5.34,25Z" style="fill:#263238"></path><path d="M514.65,250.77a61.64,61.64,0,0,1,.1,6.93,9.23,9.23,0,0,1-.1-6.93Z" style="fill:#263238"></path></g><g id="freepik--character-1--inject-30"><path d="M293.48,462.94c-2.32.72-69.77-.74-72.24-2.38-.94-.61,4.84-64.51,4.84-64.51l42.78.82L264,439.61s24.89,11.8,27.41,13.89S295.79,462.23,293.48,462.94Z" style="fill:#ad6359"></path><path d="M294.93,463.93c-2.44.73-71.27-1.56-73.84-3.31-1-.66-.69-10.51.16-22.85l43,1.35s26,12.67,28.58,14.89S297.36,463.21,294.93,463.93Z" style="fill:#455a64"></path><path d="M294,461.15c-11.53-.67-58.1-2.27-69.54-2.06-.1,0-.1.07,0,.07,11.42.92,58,2.14,69.54,2.18C294.27,461.34,294.27,461.16,294,461.15Z" style="fill:#263238"></path><path d="M288.52,451.38a9.29,9.29,0,0,0-7,2.59,9,9,0,0,0-2.79,6.07c0,.07.13.08.14,0a10.72,10.72,0,0,1,9.64-8.52C288.6,451.52,288.61,451.39,288.52,451.38Z" style="fill:#263238"></path><path d="M268.72,440.42c-4.61-.22-10,1.23-13,4.91-.11.15.09.31.23.24A64.27,64.27,0,0,1,268.78,441,.29.29,0,0,0,268.72,440.42Z" style="fill:#263238"></path><path d="M272.24,441.93c-4.62-.22-10,1.23-13,4.91-.12.15.09.31.23.24a64,64,0,0,1,12.85-4.58A.29.29,0,0,0,272.24,441.93Z" style="fill:#263238"></path><path d="M275.76,443.44c-4.62-.22-10,1.23-13,4.91-.12.14.09.31.23.24A64,64,0,0,1,275.82,444,.29.29,0,0,0,275.76,443.44Z" style="fill:#263238"></path><path d="M279.28,444.94c-4.62-.21-10,1.24-13,4.92-.12.14.09.31.23.24a63.43,63.43,0,0,1,12.85-4.58A.3.3,0,0,0,279.28,444.94Z" style="fill:#263238"></path><path d="M274.12,428.26c-2.27-2-5.28-.22-6.79,1.75a24.23,24.23,0,0,0-4.59,11.67.12.12,0,0,0,.14.13.56.56,0,0,0,.82.4c3.37-2.16,7.23-4.06,9.83-7.19C275.05,433.19,276.27,430.17,274.12,428.26Zm-6,9.63c-1.63,1.1-3.3,2.12-4.89,3.29a71.43,71.43,0,0,1,2.83-6.76,27.48,27.48,0,0,1,1.79-3.06c1.06-1.49,5.72-5.2,6-.16C274,434,270.07,436.57,268.13,437.89Z" style="fill:#263238"></path><path d="M251.21,443c4,.75,8.19-.26,12.16-.74a.56.56,0,0,0,.37-.83.13.13,0,0,0,0-.2,24.37,24.37,0,0,0-11-6.05c-2.41-.55-5.88,0-6.34,3C246,441,248.88,442.57,251.21,443Zm-2.7-2.73c-3-4.06,3-4.18,4.73-3.71a28.18,28.18,0,0,1,3.33,1.21,71.46,71.46,0,0,1,6.49,3.4c-2,.11-3.9.4-5.86.59C254.87,442,250.16,442.53,248.51,440.28Z" style="fill:#263238"></path><path d="M263.45,463.41c-19.45-.7-40.95-1.83-42.36-2.79-.91-.61-.72-9.11,0-20.17Z" style="opacity:0.1"></path><path d="M267.07,439.64,220.26,438s11.26-109.83,10.91-111.76c-.44-2.48-30.24-119.32-30.24-119.32H241s31.61,108.9,32.74,119.39C275.6,343.27,267.07,439.64,267.07,439.64Z" style="fill:#78C127"></path><path d="M269.61,409.09c-.33,4.22-.65,8.19-.95,11.78l-46.49-1.63c.37-3.6.77-7.56,1.2-11.78Z" style="fill:#ebebeb"></path><path d="M226.38,427.93c2.48-.1,5,0,7.48.06s5,.11,7.47.22c5,.21,9.95.44,14.92.74q2,.12,4.08.27c1.45.12,2.9.41,4.35.51a.09.09,0,0,1,0,.18c-1.22,0-2.45.11-3.68.11s-2.54,0-3.81-.08c-2.49-.08-5-.16-7.46-.26-5-.2-10-.43-14.92-.79-2.81-.21-5.65-.34-8.44-.71A.13.13,0,0,1,226.38,427.93Z" style="opacity:0.1"></path><path d="M209.75,216.36c3.58,12.7,6.86,25.52,10.08,38.32s6.41,25.62,9.6,38.43q2.4,9.61,4.78,19.22c1.55,6.24,3.36,12.51,3.74,19s-.44,13.16-1,19.68-1.11,13.12-1.68,19.68c-1.15,13.11-5.4,51.86-5.56,53.5,0,.14-.54.7-.47,0,1.12-13.11,3.38-35.48,4.43-48.6q.8-9.82,1.6-19.67c.54-6.55,1.31-13.11,1.51-19.68s-1-13-2.6-19.37L229.48,298q-4.81-19.22-9.6-38.44c-3.56-14.35-7.11-28.72-10.25-43.17C209.61,216.31,209.73,216.29,209.75,216.36Z" style="opacity:0.1"></path><path d="M200.93,206.93s12.78,50.12,21.73,85.41l17.06-85.41Z" style="opacity:0.1"></path><path d="M243.1,463.09c-2.31.73-69.77-.73-72.23-2.37-1-.61,2.57-64.55,2.57-64.55l42.22.82-2,42.78s24.89,11.79,27.41,13.89S245.41,462.38,243.1,463.09Z" style="fill:#ad6359"></path><path d="M244.38,464.07c-2.43.72-71.27-1.57-73.84-3.31-1-.66-.68-10.51.17-22.85l43,1.35s26,12.66,28.57,14.88S246.81,463.35,244.38,464.07Z" style="fill:#455a64"></path><path d="M243.48,461.28c-11.53-.66-58.09-2.27-69.54-2-.09,0-.1.06,0,.07,11.41.91,58,2.14,69.54,2.17C243.72,461.47,243.73,461.3,243.48,461.28Z" style="fill:#263238"></path><path d="M238,451.52a9.26,9.26,0,0,0-7,2.58,9,9,0,0,0-2.78,6.08c0,.07.13.07.14,0a10.72,10.72,0,0,1,9.64-8.52A.07.07,0,0,0,238,451.52Z" style="fill:#263238"></path><path d="M218.18,440.55c-4.62-.21-10,1.24-13,4.92-.11.14.09.31.23.24a64.17,64.17,0,0,1,12.86-4.59A.29.29,0,0,0,218.18,440.55Z" style="fill:#263238"></path><path d="M221.7,442.06c-4.62-.22-10,1.24-13,4.92-.11.14.09.3.23.24a63.55,63.55,0,0,1,12.86-4.59A.29.29,0,0,0,221.7,442.06Z" style="fill:#263238"></path><path d="M225.21,443.57c-4.61-.22-10,1.24-13,4.92-.11.14.09.3.23.24a63.55,63.55,0,0,1,12.86-4.59A.29.29,0,0,0,225.21,443.57Z" style="fill:#263238"></path><path d="M228.73,445.08c-4.61-.22-10,1.23-13,4.92-.11.14.09.3.23.24a63.68,63.68,0,0,1,12.85-4.59A.29.29,0,0,0,228.73,445.08Z" style="fill:#263238"></path><path d="M223.58,428.4c-2.28-2-5.28-.22-6.79,1.74a24.17,24.17,0,0,0-4.59,11.67c0,.1.06.14.14.14a.57.57,0,0,0,.82.4c3.36-2.17,7.22-4.06,9.82-7.2C224.5,433.32,225.73,430.3,223.58,428.4Zm-6,9.62c-1.62,1.11-3.3,2.13-4.88,3.29.9-2.27,1.7-4.57,2.83-6.76a25.1,25.1,0,0,1,1.79-3.05c1.05-1.5,5.71-5.21,6-.17C223.49,434.11,219.53,436.71,217.58,438Z" style="fill:#263238"></path><path d="M200.67,443.14c4,.75,8.18-.25,12.15-.74a.56.56,0,0,0,.38-.83.12.12,0,0,0,0-.19,24.23,24.23,0,0,0-11-6.05c-2.41-.55-5.87,0-6.34,3C195.46,441.16,198.33,442.7,200.67,443.14Zm-2.7-2.72c-3-4.07,3-4.19,4.72-3.71a24.52,24.52,0,0,1,3.33,1.21c2.27,1,4.35,2.22,6.5,3.39-2,.12-3.91.4-5.87.59C204.32,442.13,199.61,442.66,198,440.42Z" style="fill:#263238"></path><path d="M239.72,206.91s-2.26,28.34-6.94,35.46c0,0-4.55,2.16-11.51,5.43,0,0-3,76.18-3,80.73.19,17-2.07,110.79-2.07,110.79H169.4s6.79-105,6.81-111.25c0-6,2.88-44.1,5.44-77.11,0,0-3.77-10.54-3.35-15.87,1-12.91,6.8-28.16,6.8-28.16Z" style="fill:#78C127"></path><path d="M217,407.78c-.1,4.21-.19,8.18-.27,11.8h-46c.23-3.62.49-7.59.75-11.8Z" style="fill:#ebebeb"></path><path d="M224.82,233.86l.48-3.18c.3-1.94.69-3.87,1-5.81.78-4.39,1.58-8.8,2.56-13.15,0-.11.2-.08.19,0-.18,1.76-.38,3.51-.63,5.26s-.42,3.51-.67,5.26c-.49,3.47-1,6.95-1.56,10.4-.23,1.33-1.06,3.72.86,4.13,1.52.33,2.63-1.16,3.07-2.41a29.07,29.07,0,0,0,1-4.8c.32-1.75.59-3.5.84-5.27q.81-5.74,1.76-11.48c0-.11.19-.07.19,0a115.41,115.41,0,0,1-.85,11.75q-.37,2.81-.84,5.59a19.62,19.62,0,0,1-1.29,5.2,4.23,4.23,0,0,1-3.17,2.55h-.08a.14.14,0,0,1,.05.11c0,.62,0,1.25-.07,1.87s-.19,1.23-.31,1.83a11.43,11.43,0,0,1-.47,1.83,8.68,8.68,0,0,1-.34.84c-.14.28-.33.5-.49.77a.11.11,0,0,1-.21-.06h0c0-.11,0-.21,0-.31s0,0,0-.05h0a5.21,5.21,0,0,1,0-.55c0-.3.11-.59.18-.89.13-.59.29-1.18.45-1.76s.28-1.18.43-1.76.36-1.2.5-1.81a.07.07,0,0,1,0-.05,2.76,2.76,0,0,1-2.67-1.68A4.76,4.76,0,0,1,224.82,233.86Z" style="opacity:0.1"></path><path d="M217.73,249.09a33,33,0,0,1,4-2.63,39.14,39.14,0,0,1,4.55-2.35c3.06-1.33,6.22-2.24,9.38-3.28.09,0,.16.12.06.16-3.06,1.22-6,2.83-8.95,4.28q-2.19,1.06-4.41,2c-1.49.65-3,1.42-4.49,2A.13.13,0,0,1,217.73,249.09Z" style="opacity:0.1"></path><path d="M193.82,225.42c2.16,0,9.61-.54,11.82-3a15.22,15.22,0,0,0,2.75-5,48.08,48.08,0,0,0,1.68-6c0-.11.17-.07.17,0a23.41,23.41,0,0,1-.87,6.86c-.52,1.89-1.22,4-2.75,5.33a10.87,10.87,0,0,1-5.85,2.14,26.59,26.59,0,0,1-7-.1A.12.12,0,0,1,193.82,225.42Z" style="opacity:0.1"></path><path d="M244.79,226a7.32,7.32,0,0,1-2.86-1.72c-1.62-2.45-2-10.25-2.16-12.3,0-.1-.05-.07-.05,0,0,2.29.08,4.63.27,6.85a24,24,0,0,0,.85,5.33c.49,1.4,3.23,2.36,3.95,2C244.83,226.21,244.83,226,244.79,226Z" style="opacity:0.1"></path><path d="M173.22,429.16c2.48-.17,5-.14,7.48-.18s5,0,7.47,0c5,0,10,.12,14.94.26,1.36,0,2.72.08,4.08.15s2.91.31,4.37.37c.11,0,.1.17,0,.17-1.22,0-2.45.2-3.67.23s-2.54.05-3.81.05l-7.47,0c-5,0-10-.11-14.94-.32-2.81-.11-5.65-.15-8.45-.43A.13.13,0,0,1,173.22,429.16Z" style="opacity:0.1"></path><path d="M178.39,423.65h0a.52.52,0,0,1-.49-.54l10-173.42c-.12-.72-2.82-9.89-3.06-14.57-.25-5,4.87-24.25,5.09-25.07a.51.51,0,1,1,1,.26c0,.2-5.29,20-5,24.76s3,14.43,3.06,14.5-10,173.59-10,173.59A.52.52,0,0,1,178.39,423.65Z" style="opacity:0.1"></path><path d="M251.07,216.19l-7.19.64-2.86-9.9h-1.3v0l-54.62,0a139.27,139.27,0,0,0-4.68,15.53l-4.74.42L186.43,199l58.39-3.37Z" style="fill:#78C127;opacity:0.1"></path><path d="M243.88,216.83l-63.46,5.63a139.27,139.27,0,0,1,4.68-15.53l54.62,0v0H241Z" style="opacity:0.1"></path><path d="M233.32,110.51c-6.56,6.73-2.59,13.3-5.4,15.42-7.34,5.52-2.84,8.14-4.83,10.22-1.63,1.7-7.59,2.66-6.09,9.44l26.72,2.32c1.19-4.32-3.94-7-3.95-10.14s4.29-7.57-1.35-13C233,119.5,236.47,107.29,233.32,110.51Z" style="fill:#263238"></path><path d="M218.75,155.68c7.12,22.33,16.84,44.17,21.21,47.1,6.78,4.55,30,6.77,40.5,5.47,3.44-.43,2.37-24-.8-25.95s-28.43-1.86-30.54-2.69c-1.13-.44-12.64-16.56-21.19-27.21C220,142.5,216.6,148.9,218.75,155.68Z" style="fill:#ad6359"></path><path d="M268.34,212.81l-.7-33s-15.08-1.24-18.2-1.66c-1.32-.17-15.67-20.06-22.37-28.49-4.41-5.55-11.61-6.33-8.93,7.09,1.57,7.85,14.4,43.81,21.44,47.85C245.19,207.81,268.34,212.81,268.34,212.81Z" style="fill:#78C127"></path><path d="M243,170.53l-17.21,8.95c-1.53-3.86-2.94-7.7-4.13-11.15L235.74,161C238.23,164.3,240.76,167.67,243,170.53Z" style="fill:#ebebeb"></path><path d="M262.44,209c-.4-2.12-.6-11-.63-13.26s.18-11.13.16-13.42c0-.12.18-.16.18,0,.06,2.25.55,11.2.6,13.42s.14,11.12-.19,13.28C262.54,209.09,262.45,209.09,262.44,209Z" style="fill:#263238"></path><path d="M268.34,212.81s-23.16-5-28.76-8.21c-7-4-19.88-40-21.44-47.85-1.69-8.46.55-11.28,3.54-10.8l46.63,65.46Z" style="opacity:0.1"></path><path d="M243.22,213.86s.18-5.26,0-7.05c-.36-3.12-5.36-17.18-5.36-17.18s4.72-8.25,1.15-15.95c-1.8-3.9-12-23.15-18.63-28-6.24-4.52-14.67-1.49-17.43,2.55-8.22,12-14.75,31.42-22.36,60.7-.62,2.38,1.21,7,1.21,7Z" style="fill:#78C127"></path><path d="M240,183.44l-52.63,1.25q2-6.39,3.92-11.89L238,171.69c.43.85.77,1.53,1,2A16,16,0,0,1,240,183.44Z" style="fill:#ebebeb"></path><path d="M202.85,147.71c-20.17,15.84-40,43.21-40.13,58.51-.14,15.12,5.12,13.65,6.62,13.55,9.13-.6,30.62-42.65,37.17-59.8S207.83,143.79,202.85,147.71Z" style="fill:#78C127"></path><path d="M202.92,168.52c-1.47,3.3-3.18,6.93-5,10.68l-17.52-8.85c2.49-3.14,5.17-6.24,7.95-9.21Z" style="fill:#ebebeb"></path><path d="M181.47,208c1.06-1.91,2.14-3.79,3.17-5.71l3.15-5.72c2.07-3.82,4.18-7.62,6.19-11.48s4.09-7.67,6.08-11.53q1.5-2.9,2.93-5.83c1-1.94,1.88-3.92,2.8-5.89a117.66,117.66,0,0,1-5,12.08c-1.84,4-3.86,7.81-5.88,11.67s-4.19,7.64-6.42,11.38S184,204.4,181.47,208Z" style="fill:#263238"></path><path d="M203.66,166.87a17.75,17.75,0,0,1,1.24-2c.23-.31.44-.63.69-.93s.46-.62.73-.92a5.79,5.79,0,0,1-1,2.15A6.47,6.47,0,0,1,203.66,166.87Z" style="fill:#263238"></path><path d="M167.63,218.63c6.76.93,14.94-.71,36.77-16.66,3-2.2-6.93-31-10.28-28.8-4.22,2.76-20,15.15-21.06,16.15C164.24,197.71,163.05,218,167.63,218.63Z" style="fill:#ad6359"></path><path d="M205.59,158.72s-4-4.43-.74-6.9,6.45,2.54,6.45,2.54Z" style="fill:#455a64"></path><path d="M236.53,187.48h0l1,5.74.33,1.89-1.75-.81-5.28-2.47h0l-25.36-33.3,5.72-4.36,25.36,33.31Z" style="fill:#455a64"></path><polygon points="237.51 193.23 237.84 195.13 236.09 194.31 237.51 193.23" style="fill:#37474f"></polygon><rect x="204.47" y="156" width="8.39" height="1.66" transform="translate(-52.36 158.49) rotate(-37.29)" style="fill:#263238"></rect><rect x="205.59" y="157.47" width="8.39" height="1.66" transform="translate(-53.02 159.47) rotate(-37.29)" style="fill:#263238"></rect><polygon points="206.95 161.5 209.1 159.86 217.09 172.82 216.26 173.37 206.95 161.5" style="fill:#263238"></polygon><path d="M236.45,167.06c.23,3.41-8.21,3.26-8.21,3.26a6.31,6.31,0,0,1,2.77,3.26c.79,2.47-2.74,4.79-2.74,4.79a7.79,7.79,0,0,1,2.37,3.91c.52,2.44-2.7,5.29-2.7,5.29a6.85,6.85,0,0,1-.08,4.75c-1.76,4-8.47,4.5-12.56,5.62A88.36,88.36,0,0,0,202,203.12l-9.25-29s17-12.9,22-13C219,161.09,236.1,161.86,236.45,167.06Z" style="fill:#ad6359"></path><path d="M228.17,170.23c-4.53-1-9.3-.95-13.89-.84a.08.08,0,0,0,0,.16c4.57-.17,9.3.88,13.86.9C228.27,170.45,228.29,170.25,228.17,170.23Z" style="fill:#263238"></path><path d="M228.13,178a12,12,0,0,0-3.17,0c-1.11.08-2.23.18-3.35.3-2.23.25-4.45.54-6.67.9-.1,0-.1.17,0,.16q3.33-.36,6.68-.59l3.36-.19a14.44,14.44,0,0,0,3.15-.3A.16.16,0,0,0,228.13,178Z" style="fill:#263238"></path><path d="M227.84,187.58a8.32,8.32,0,0,0-2.85.17l-3,.37c-2,.24-4.07.48-6.1.65-.11,0-.1.17,0,.16,2.07-.16,4.15-.29,6.22-.47l3.05-.28a8.2,8.2,0,0,0,2.74-.5A.06.06,0,0,0,227.84,187.58Z" style="fill:#263238"></path><path d="M186.3,178.2l8.6,31.35s-23.09,13.59-28.19,10-1.76-21.7,4-28.61C173.13,188.07,186.3,178.2,186.3,178.2Z" style="fill:#78C127"></path><path d="M186.58,179.24l-.34-1,.09,0c-2.18,1.78-4.37,3.55-6.53,5.35s-4.32,3.58-6.37,5.48a32.84,32.84,0,0,0-2.94,3,24.28,24.28,0,0,0-2.32,3.43,26.76,26.76,0,0,0-2.79,7.87,22.2,22.2,0,0,1,2.26-8.14,19.72,19.72,0,0,1,2.3-3.61,31.88,31.88,0,0,1,2.95-3.08c2.1-1.91,4.29-3.69,6.51-5.42s4.52-3.36,6.86-4.93l.07,0,0,.07Z" style="fill:#263238"></path><path d="M181.24,186c.52,1.54.92,3.13,1.36,4.7s.85,3.14,1.25,4.72c.8,3.16,1.59,6.32,2.33,9.49.2.87.4,1.74.59,2.61s.28,1.89.49,2.82a.06.06,0,0,1-.11,0c-.21-.77-.53-1.52-.76-2.29s-.45-1.59-.66-2.4c-.42-1.57-.83-3.15-1.23-4.73-.8-3.15-1.59-6.32-2.29-9.5-.4-1.79-.85-3.6-1.14-5.41A.09.09,0,0,1,181.24,186Z" style="fill:#263238"></path><path d="M194.12,206.77c.37.95.73,1.91,1,2.88-2.09,1.32-4.25,2.52-6.45,3.65a48.83,48.83,0,0,1-6.64,2.89c3-1.74,6.38-3.62,9.49-5.23,1.07-.55,2.15-1.07,3.23-1.6l-.1.25c-.22-.94-.4-1.88-.57-2.84Z" style="fill:#263238"></path><path d="M208.94,144.72c.25,1.07,8,7.84,12.92,7.62,1.59-.07-1.14-8.6-1.14-8.6l.15-.64,2-9-10.55-6.79-1.53-.9s-.39,2.49-.85,5.61l-.06.44c0,.18-.06.34-.08.51-.08.46-.15.94-.22,1.41s-.1.71-.13,1.09-.09.75-.14,1.13A58.69,58.69,0,0,0,208.94,144.72Z" style="fill:#ad6359"></path><path d="M210,132a18.51,18.51,0,0,0,10.91,11.08l2-9-10.55-6.79-1.53-.9S210.42,128.9,210,132Z" style="fill:#263238"></path><path d="M220.73,143.72l-2.18,7.39-9.71-8.17-2.23,3.13s10,13.49,10,12.84L219,152.5l4.64,3.86-1.36-10.68Z" style="fill:#78C127"></path><path d="M223.24,151c-.29-1.75-.53-3.53-.89-5.27,0-.06-.11-.08-.12,0-.19,1.74.93,8.46,1.07,10.08l0,0c-.19-.17-4.28-3.38-4.31-3.32-.55,1-2.27,5.71-2.38,6.13-1.59-2.15-7.62-9.91-9.44-11.91-.05-.06-.15,0-.1.07,1.43,2.29,9.43,12.76,9.54,12.72a71.41,71.41,0,0,0,2.45-6.78c.71.71,4.88,4.39,4.86,4.12A56.75,56.75,0,0,0,223.24,151Z" style="fill:#263238"></path><path d="M236.76,122.83c-1.2,16.13-11,17.23-14.48,17-3.16-.24-13.88-1.46-14.34-17.63s7.41-20.71,14.66-20.54S238,106.7,236.76,122.83Z" style="fill:#ad6359"></path><path d="M226.64,101.13c-6.88-1.74-12.93-1.29-16.36,1.63-7.15,6.11-6,18-9,19.84-7.8,4.84-3.53,8.79-5.7,10.68-1.78,1.55-5.93,2.78-5.05,9.66l24.53,3.92c1.57-4.19-2.38-7.31-2.1-10.42s2.78-4.15-1.18-13.07C209.44,118.09,226.64,101.13,226.64,101.13Z" style="fill:#263238"></path><path d="M209,118.84c1.64.44,5.49,1.43,8.32-.13,1.57-.87,3.11-2.54,4.48-5.82,2.38-5.72,7.23-8.8,12.93-4.11a8.94,8.94,0,0,0-3.28-6.31c-3.32-2.89-5.53-1.83-5.53-1.83s-8.09-2.39-13.69,3S209,118.84,209,118.84Z" style="fill:#263238"></path><path d="M234,119.43c-.37-.09-.7-.22-1.06-.34a1.83,1.83,0,0,1-1-.55.57.57,0,0,1,.07-.7,1.39,1.39,0,0,1,1.43-.19,2,2,0,0,1,1.23.86A.62.62,0,0,1,234,119.43Z" style="fill:#263238"></path><path d="M223.58,118.32a10.19,10.19,0,0,0,1.11-.13,1.74,1.74,0,0,0,1.11-.34.57.57,0,0,0,.07-.7,1.44,1.44,0,0,0-1.37-.47,2.16,2.16,0,0,0-1.38.61A.62.62,0,0,0,223.58,118.32Z" style="fill:#263238"></path><path d="M225.48,122.61s-.09,0-.09.09c0,1.1-.29,2.36-1.31,2.65a0,0,0,0,0,0,.06C225.31,125.33,225.61,123.66,225.48,122.61Z" style="fill:#263238"></path><path d="M224.59,121.39c-1.76-.27-2.16,3.27-.54,3.51S226.06,121.61,224.59,121.39Z" style="fill:#263238"></path><path d="M223.87,121.5c-.33.16-.67.48-1.05.47s-.72-.41-1-.8c0,0-.06,0-.06,0-.09.67.09,1.4.81,1.58s1.19-.38,1.44-1C224.09,121.63,224,121.43,223.87,121.5Z" style="fill:#263238"></path><path d="M231.44,123.23s.08.06.07.11c-.17,1.09-.18,2.36.77,2.85,0,0,0,.07,0,.06C231.08,125.93,231.11,124.23,231.44,123.23Z" style="fill:#263238"></path><path d="M232.56,122.21c1.77.08,1.48,3.62-.17,3.55S231.07,122.14,232.56,122.21Z" style="fill:#263238"></path><path d="M233.28,122.5c.26.21.51.58.84.63s.71-.3,1-.65c0,0,0,0,0,0,0,.68-.32,1.37-1,1.44s-1-.55-1.1-1.23C233.06,122.6,233.17,122.42,233.28,122.5Z" style="fill:#263238"></path><path d="M223.75,131.12c.19.31.36.72.75.84a2.9,2.9,0,0,0,1.21,0,0,0,0,0,1,0,.07,1.48,1.48,0,0,1-1.5.25,1.18,1.18,0,0,1-.61-1.15C223.63,131.07,223.72,131.07,223.75,131.12Z" style="fill:#263238"></path><path d="M229,128s-.07,1.66-.21,2.43c0,.07-.2.07-.46,0,0,0,0,0,0,0a3.68,3.68,0,0,1-3.28-2c0-.08.07-.14.13-.08a5.58,5.58,0,0,0,3.14,1.55c.09-.2,0-2.84.15-2.83a6.33,6.33,0,0,1,1.66.71c.25-3.45-.05-6.92.25-10.35,0-.13.19-.13.2,0a56.33,56.33,0,0,1,.22,11.16C230.74,129.07,229.27,128.21,229,128Z" style="fill:#263238"></path><path d="M227.88,130a4,4,0,0,1-1.75,1,1.76,1.76,0,0,1-1.08-.09c-.75-.31-.67-1-.44-1.62a4.22,4.22,0,0,1,.47-.88A5.13,5.13,0,0,0,227.88,130Z" style="fill:#263238"></path><path d="M226.13,131a1.76,1.76,0,0,1-1.08-.09c-.75-.31-.67-1-.44-1.62A1.85,1.85,0,0,1,226.13,131Z" style="fill:#ff9cbd"></path><path d="M214,122.2s-2.68-5.55-5.14-4.68-1,8.53,1.48,10a2.73,2.73,0,0,0,3.85-.87Z" style="fill:#ad6359"></path><path d="M209.35,119.7s-.06,0,0,.07c1.74,1.06,2.44,2.94,2.84,4.85a1.52,1.52,0,0,0-2.17-.77c-.05,0,0,.11,0,.1a1.69,1.69,0,0,1,1.73.88,8.37,8.37,0,0,1,.63,1.62c.06.18.38.14.35-.06a.07.07,0,0,1,0,0C213.16,124,211.86,120.36,209.35,119.7Z" style="fill:#263238"></path><path d="M236.37,114.77s.07-17.87-15.86-18.06-16.29,17.67-16.29,17.67Z" style="fill:#78C127"></path><rect x="203.02" y="113.31" width="34.54" height="2.53" transform="translate(439.17 231.84) rotate(-179.3)" style="fill:#78C127"></rect><polygon points="220.57 113.31 227.76 113.4 226.28 95.86 219.09 95.78 220.57 113.31" style="fill:#78C127"></polygon><polygon points="220.57 113.31 227.76 113.4 226.28 95.86 219.09 95.78 220.57 113.31" style="opacity:0.1"></polygon><polygon points="265.92 212.86 230.56 213.62 246.1 167.9 281.46 167.15 265.92 212.86" style="fill:#ebebeb"></polygon><polygon points="268.34 212.81 232.98 213.57 248.52 167.85 283.88 167.09 268.34 212.81" style="fill:#37474f"></polygon><path d="M252.28,167.78a3.11,3.11,0,0,1-1.48,1.87c-.33.19-.43-.25-.1-.42a2.39,2.39,0,0,0,1-1.19,2.41,2.41,0,0,0,.08-.25,1.73,1.73,0,0,0,0-.87.54.54,0,0,0-.2-.31h0l0,0h-.07a.4.4,0,0,0-.24,0,1.05,1.05,0,0,0-.4.27,2.55,2.55,0,0,0-.35.48l-.15.27,0,.06a.36.36,0,0,0,0,.09s0,0,0,.06h-.5a3.54,3.54,0,0,1,.46-.88,2,2,0,0,1,1.34-.9.79.79,0,0,1,.81.71A2.13,2.13,0,0,1,252.28,167.78Z" style="fill:#c7c7c7"></path><path d="M255.05,167.72a3.19,3.19,0,0,1-1.48,1.88c-.33.18-.43-.26-.1-.43a2.37,2.37,0,0,0,1.08-1.44,1.73,1.73,0,0,0,0-.87.54.54,0,0,0-.2-.3l0,0,0,0h-.07a.44.44,0,0,0-.25,0,1.23,1.23,0,0,0-.4.27,2.48,2.48,0,0,0-.34.48,2.34,2.34,0,0,0-.15.27l0,.06a.36.36,0,0,0,0,.09.14.14,0,0,0,0,.06h-.5a3.54,3.54,0,0,1,.46-.88,2,2,0,0,1,1.34-.9.77.77,0,0,1,.8.71A2,2,0,0,1,255.05,167.72Z" style="fill:#c7c7c7"></path><path d="M257.81,167.66a3.14,3.14,0,0,1-1.47,1.88c-.33.18-.43-.26-.1-.43a2.17,2.17,0,0,0,1.07-1.44,1.63,1.63,0,0,0,0-.87.5.5,0,0,0-.21-.3l0,0,0,0H257a.44.44,0,0,0-.25,0,1.13,1.13,0,0,0-.4.27,2.48,2.48,0,0,0-.34.48,2.34,2.34,0,0,0-.15.27l0,.06a.36.36,0,0,0,0,.09s0,0,0,.06h-.51a3.91,3.91,0,0,1,.46-.88,1.93,1.93,0,0,1,1.34-.89.78.78,0,0,1,.81.7A1.91,1.91,0,0,1,257.81,167.66Z" style="fill:#c7c7c7"></path><path d="M260.58,167.6a3.11,3.11,0,0,1-1.47,1.88c-.34.19-.44-.25-.11-.43a2.31,2.31,0,0,0,1-1.19,2.41,2.41,0,0,0,.08-.25,1.73,1.73,0,0,0,0-.87.59.59,0,0,0-.21-.3s0,0,0,0l-.05,0h-.06a.37.37,0,0,0-.25,0,.92.92,0,0,0-.4.27,1.87,1.87,0,0,0-.34.47c-.06.09-.1.18-.15.27l0,.06a.36.36,0,0,0,0,.09s0,0,0,.06h-.5a3.91,3.91,0,0,1,.46-.88,1.91,1.91,0,0,1,1.34-.89.78.78,0,0,1,.81.7A2.13,2.13,0,0,1,260.58,167.6Z" style="fill:#c7c7c7"></path><path d="M263.35,167.54a3.13,3.13,0,0,1-1.48,1.88c-.33.19-.43-.25-.1-.43a2.31,2.31,0,0,0,1-1.19,2.41,2.41,0,0,0,.08-.25,1.69,1.69,0,0,0,0-.86.54.54,0,0,0-.2-.31l0,0,0,0h-.07a.34.34,0,0,0-.24,0,.87.87,0,0,0-.4.27,2,2,0,0,0-.35.48c-.05.08-.09.17-.15.26l0,.06a.36.36,0,0,0,0,.09s0,0,0,.06h-.5a3.54,3.54,0,0,1,.46-.88,1.91,1.91,0,0,1,1.34-.89.78.78,0,0,1,.81.7A2.13,2.13,0,0,1,263.35,167.54Z" style="fill:#c7c7c7"></path><path d="M266.12,167.48a3.16,3.16,0,0,1-1.48,1.88c-.33.19-.43-.25-.1-.43a2.35,2.35,0,0,0,1-1.19,2.41,2.41,0,0,0,.08-.25,1.69,1.69,0,0,0,0-.86.6.6,0,0,0-.2-.31l0,0,0,0h-.07a.38.38,0,0,0-.25,0,1,1,0,0,0-.4.27,2,2,0,0,0-.34.48,2.2,2.2,0,0,0-.15.26l0,.06a.36.36,0,0,0,0,.09.14.14,0,0,0,0,.06h-.5a3.72,3.72,0,0,1,.46-.88,1.91,1.91,0,0,1,1.34-.89.77.77,0,0,1,.8.7A2,2,0,0,1,266.12,167.48Z" style="fill:#c7c7c7"></path><path d="M268.89,167.42a3.16,3.16,0,0,1-1.48,1.88c-.33.19-.43-.25-.1-.43a2.17,2.17,0,0,0,1.07-1.44,1.59,1.59,0,0,0,0-.86.56.56,0,0,0-.21-.31l0,0,0,0h-.07a.44.44,0,0,0-.25,0,.92.92,0,0,0-.4.27,2,2,0,0,0-.34.48,2.2,2.2,0,0,0-.15.26l0,.06a.36.36,0,0,0,0,.09s0,0,0,.06h-.5a3.72,3.72,0,0,1,.46-.88,1.9,1.9,0,0,1,1.33-.89.78.78,0,0,1,.81.7A2,2,0,0,1,268.89,167.42Z" style="fill:#c7c7c7"></path><path d="M271.65,167.36a3.11,3.11,0,0,1-1.47,1.88c-.34.19-.44-.25-.11-.43a2.31,2.31,0,0,0,1-1.19,2.41,2.41,0,0,0,.08-.25,1.69,1.69,0,0,0,0-.86.62.62,0,0,0-.21-.31l0,0,0,0h-.06a.54.54,0,0,0-.25,0,1,1,0,0,0-.4.27,1.75,1.75,0,0,0-.34.48,2.2,2.2,0,0,0-.15.26l0,.06a.36.36,0,0,0,0,.09s0,0,0,.06l-.5,0a4,4,0,0,1,.46-.89,1.91,1.91,0,0,1,1.34-.89.78.78,0,0,1,.81.71A2.09,2.09,0,0,1,271.65,167.36Z" style="fill:#c7c7c7"></path><path d="M274.42,167.3a3.13,3.13,0,0,1-1.48,1.88c-.33.19-.43-.25-.1-.43a2.32,2.32,0,0,0,1-1.18c0-.09.06-.18.08-.26a1.69,1.69,0,0,0,0-.86.54.54,0,0,0-.2-.31l0,0-.05,0h-.06a.54.54,0,0,0-.25,0,1,1,0,0,0-.4.27,2.26,2.26,0,0,0-.35.48c-.05.08-.09.17-.15.26l0,.06a.36.36,0,0,0,0,.09s0,.05,0,.07h-.5a3.6,3.6,0,0,1,.46-.89,1.91,1.91,0,0,1,1.34-.89.78.78,0,0,1,.81.71A2.09,2.09,0,0,1,274.42,167.3Z" style="fill:#c7c7c7"></path><path d="M277.19,167.24a3.16,3.16,0,0,1-1.48,1.88c-.33.19-.43-.25-.1-.43a2.32,2.32,0,0,0,1-1.18,2.58,2.58,0,0,0,.08-.26,1.69,1.69,0,0,0,0-.86.54.54,0,0,0-.2-.31l0,0,0,0h-.07a.44.44,0,0,0-.25,0,1.09,1.09,0,0,0-.4.27,4.78,4.78,0,0,0-.49.74l0,.06a.42.42,0,0,0,0,.1.14.14,0,0,0,0,.06h-.5a3.6,3.6,0,0,1,.46-.89,1.91,1.91,0,0,1,1.34-.89.77.77,0,0,1,.8.71A2,2,0,0,1,277.19,167.24Z" style="fill:#c7c7c7"></path><path d="M280,167.18a3.14,3.14,0,0,1-1.48,1.88c-.33.19-.43-.25-.1-.43a2.37,2.37,0,0,0,1-1.18,1.11,1.11,0,0,0,.07-.26,1.59,1.59,0,0,0,0-.86.56.56,0,0,0-.21-.31l0,0s0,0,0,0h-.07a.44.44,0,0,0-.25,0,1,1,0,0,0-.4.27,2.48,2.48,0,0,0-.34.48,2.2,2.2,0,0,0-.15.26l0,.07a.36.36,0,0,0,0,.09s0,0,0,.06h-.5a3.6,3.6,0,0,1,.46-.89,1.93,1.93,0,0,1,1.34-.89.78.78,0,0,1,.8.71A2,2,0,0,1,280,167.18Z" style="fill:#c7c7c7"></path><path d="M282.72,167.12a3.08,3.08,0,0,1-1.47,1.88c-.34.19-.44-.25-.11-.43a2.39,2.39,0,0,0,1-1.18l.07-.25a1.74,1.74,0,0,0,0-.87.62.62,0,0,0-.21-.31l0,0h-.11a.43.43,0,0,0-.25,0,1.13,1.13,0,0,0-.4.27,2.11,2.11,0,0,0-.34.48,1.73,1.73,0,0,0-.15.27l0,.06a.36.36,0,0,0,0,.09s0,0,0,.06h-.51a3.91,3.91,0,0,1,.46-.88,1.93,1.93,0,0,1,1.34-.9.78.78,0,0,1,.81.71A2.09,2.09,0,0,1,282.72,167.12Z" style="fill:#c7c7c7"></path><path d="M281.62,177.44c1.67,3.91,6.06,8.85,6.32,12a3.64,3.64,0,0,1-2.17,3.75s3.07,1.68,2.83,4.58c-.13,1.49-2.62,2.6-2.62,2.6a4.32,4.32,0,0,1,2,4c-.3,2-2.75,2.84-2.75,2.84s1.65,2.47.68,4.45c-2,4-19.66,3.33-22.14-3.3-1.15-3.09,3.16-2.68,3.16-2.68s-6.06-2.08-6-5.73,5.62-2.79,5.62-2.79-5.85-2.07-5.42-5.85c.45-3.93,5.88-2.12,5.88-2.12s-3.83-2.82-2.84-5.64c1.65-4.65,8.86,1.57,12.79.8l2.4-6.33Z" style="fill:#ad6359"></path><path d="M284.94,183.15c-1.26-3.84,3.62-8.32,2.94-12.17-.91-5.2-6.92-.37-8.5,7.06l-.22,6Z" style="fill:#ad6359"></path><path d="M284.89,207.42a0,0,0,0,1,0,.09,30.69,30.69,0,0,1-18.18-1.81c-.18-.08-.12-.41.09-.35A63,63,0,0,0,284.89,207.42Z" style="fill:#263238"></path><path d="M286.07,200.41c.07,0,.07.11,0,.12a28.68,28.68,0,0,1-19.71-3.2c-.21-.12-.27-.44,0-.32C270.5,199.12,280.35,200.67,286.07,200.41Z" style="fill:#263238"></path><path d="M266.67,188.81c5.88,3.26,12.21,4.3,18.86,4.44.09,0,.07.12,0,.14-3.27.82-7.5.29-10.76-.4a17.76,17.76,0,0,1-8.21-4C266.47,188.94,266.55,188.74,266.67,188.81Z" style="fill:#263238"></path></g><g id="freepik--speech-bubble--inject-30"><path d="M297.47,97.11a23.81,23.81,0,0,1-39.79,15.06l-11.91,1.75,6-10.3a23.56,23.56,0,0,1-1.63-11.46,23.81,23.81,0,1,1,47.37,5Z" style="fill:#fff"></path><path d="M297.47,97.11a24,24,0,0,1-4.81,12.07,25.52,25.52,0,0,1-2.16,2.49A26.89,26.89,0,0,1,288,113.8a24.18,24.18,0,0,1-12.15,4.72,24.43,24.43,0,0,1-3.31.07,21.48,21.48,0,0,1-3.3-.35,24.09,24.09,0,0,1-11.78-5.81l.28.08-11.9,1.83-.86.13.44-.76,5.92-10.32,0,.41a24,24,0,1,1,46.17-6.69Zm0,0a23.57,23.57,0,0,0-27-25.77,23.36,23.36,0,0,0-9.83,3.89A24.61,24.61,0,0,0,253.51,83a23.55,23.55,0,0,0-3,10.07,23.92,23.92,0,0,0,1.68,10.38l.08.21-.11.2-6,10.27-.43-.62,11.92-1.67.17,0,.12.11a23.45,23.45,0,0,0,11.4,5.88,20.5,20.5,0,0,0,3.23.39,23.65,23.65,0,0,0,3.26,0,23.22,23.22,0,0,0,6.36-1.4,22.28,22.28,0,0,0,5.74-3.09,26.58,26.58,0,0,0,2.51-2.1,25.28,25.28,0,0,0,2.17-2.46A24,24,0,0,0,297.47,97.11Z" style="fill:#263238"></path><polygon points="271 108.22 260.83 97.92 264.24 94.55 270.19 100.56 282.53 81.21 286.58 83.79 271 108.22" style="fill:#78C127"></polygon></g></svg>
